<?xml version="1.0" encoding="utf-8" standalone="no"?>
<svg version="1.2" width="1000.000000pt" height="1000.000000pt" viewBox="0 0 1000.000000 1000.000000" preserveAspectRatio="xMidYMid meet" baseProfile="tiny-ps" xmlns="http://www.w3.org/2000/svg">
  <title>Jeff Jadulco</title>
  <g transform="translate(0.000000,1000.000000) scale(0.100000,-0.100000)" fill="#000000" stroke="none">
    <path d="M6954 8814 c-60 -36 -113 -69 -119 -74 -5 -4 -71 -10 -145 -14 -140 -6 -373 -23 -444 -31 -23 -3 -63 -7 -91 -10 -513 -60 -999 -176 -1420 -337 -399 -153 -696 -301 -935 -467 -68 -46 -102 -65 -121 -63 -39 5 -84 -39 -126 -125 -32 -66 -37 -86 -41 -165 l-5 -89 -26 25 c-35 33 -59 33 -67 0 -10 -41 4 -161 26 -213 12 -28 23 -91 30 -161 22 -251 30 -336 35 -360 2 -14 7 -52 10 -85 6 -61 16 -147 35 -290 16 -126 48 -292 74 -388 l23 -89 -30 6 c-29 6 -37 0 -107 -71 -121 -125 -212 -281 -250 -428 -27 -106 -26 -125 19 -256 91 -268 212 -494 370 -691 75 -93 203 -197 365 -293 19 -11 19 -14 -30 -325 -27 -170 -130 -540 -184 -664 -21 -47 -31 -54 -165 -126 -193 -104 -242 -133 -275 -164 -67 -62 -246 -204 -514 -405 -286 -215 -494 -380 -811 -645 -398 -332 -904 -792 -902 -819 1 -7 -44 -104 -100 -217 -56 -113 -125 -259 -153 -325 -113 -259 -190 -448 -186 -453 13 -13 34 11 55 64 46 112 352 796 391 873 35 71 53 91 197 223 427 392 1174 1015 1617 1347 188 142 272 209 384 308 51 46 101 83 111 83 37 0 120 -36 226 -98 389 -227 647 -389 815 -510 223 -161 232 -170 365 -372 142 -215 400 -628 427 -683 25 -51 123 -187 231 -322 106 -133 396 -445 487 -523 36 -31 68 -61 73 -67 13 -19 25 16 42 134 9 64 35 216 56 338 l39 222 98 185 c53 101 100 182 104 180 17 -11 463 -825 668 -1219 46 -88 84 -162 86 -163 1 -2 10 -2 19 0 13 2 3 30 -58 153 -71 144 -266 511 -341 643 -33 59 -34 62 -10 43 14 -11 130 -118 257 -239 230 -217 434 -405 579 -535 l76 -67 350 2 351 3 -202 185 c-347 319 -335 305 -435 485 -126 227 -200 352 -240 407 l-34 49 22 97 c12 53 30 126 40 162 10 36 33 117 50 180 69 258 64 246 128 286 255 164 524 314 563 314 45 0 272 65 329 95 16 8 54 57 91 115 35 55 83 130 107 166 23 36 42 70 42 75 0 5 4 9 9 9 5 0 13 10 17 23 4 12 17 36 29 52 37 49 215 369 355 639 69 133 87 179 106 270 2 10 8 84 14 165 5 80 13 184 17 231 17 185 -10 932 -35 963 -5 7 -51 95 -102 197 l-93 185 12 225 c14 268 14 411 2 442 -22 54 -62 201 -67 245 -3 26 -16 131 -30 233 -14 102 -30 225 -35 274 -18 174 -62 396 -120 604 -30 110 -91 287 -115 334 -15 29 -5 38 41 38 13 0 36 4 50 10 l26 10 -21 37 c-31 54 -112 118 -207 164 -110 54 -185 65 -141 21 7 -7 13 -22 13 -34 0 -11 8 -26 18 -32 15 -9 22 -7 37 12 23 28 35 28 85 -2 33 -20 37 -26 23 -31 -24 -9 -24 -61 -1 -70 12 -4 25 2 41 21 l23 27 34 -33 c22 -21 31 -38 28 -51 -8 -30 -23 -33 -52 -12 -22 17 -29 18 -39 7 -6 -7 -12 -17 -12 -23 0 -5 -6 -11 -12 -14 -9 -3 -4 -14 15 -35 26 -26 28 -33 19 -64 -9 -31 -7 -36 18 -53 27 -18 27 -19 12 -56 -13 -35 -13 -38 7 -58 12 -12 28 -21 37 -21 14 0 14 -3 4 -15 -11 -13 -15 -13 -21 -3 -5 7 -6 -5 -2 -27 7 -43 23 -65 47 -65 9 0 16 -5 16 -10 0 -6 -5 -9 -11 -8 -7 2 -16 -12 -21 -31 -8 -30 -7 -37 12 -51 11 -9 18 -19 13 -23 -10 -10 -13 -38 -3 -32 4 2 8 -7 8 -22 0 -15 8 -34 19 -42 15 -13 17 -24 12 -55 -5 -30 -2 -43 12 -57 21 -21 23 -28 10 -48 -6 -9 -2 -26 10 -47 10 -19 16 -40 13 -48 -3 -8 -1 -17 4 -20 6 -3 8 -19 6 -35 -3 -20 0 -30 11 -35 11 -4 14 -13 10 -25 -3 -10 -1 -30 4 -44 9 -22 7 -24 -10 -20 -13 4 -19 12 -16 22 4 18 -17 44 -28 33 -3 -4 -1 6 5 22 12 32 6 61 -10 51 -10 -6 -11 -1 -16 69 -1 22 -9 45 -16 50 -8 6 -13 17 -11 24 3 6 -2 12 -11 12 -13 0 -13 3 -1 27 12 24 12 29 0 35 -20 12 -39 76 -26 91 7 10 5 18 -9 30 -11 9 -20 25 -20 34 0 16 -2 16 -11 3 -8 -11 -9 -8 -4 15 14 60 14 65 1 65 -19 0 -36 46 -30 79 5 22 1 35 -16 53 -17 18 -20 31 -16 58 7 43 -17 75 -45 59 -16 -8 -19 -6 -19 11 0 11 5 20 10 20 6 0 15 11 22 25 14 31 -1 51 -42 57 -26 4 -29 2 -28 -26 0 -17 7 -39 15 -48 8 -9 15 -38 15 -64 1 -42 4 -48 37 -67 30 -18 32 -22 15 -27 -13 -3 -20 -15 -22 -36 -3 -34 19 -60 43 -50 8 3 15 1 15 -4 0 -6 -9 -10 -20 -10 -11 0 -20 -4 -20 -10 0 -5 5 -10 10 -10 13 0 13 -37 1 -45 -5 -3 1 -17 15 -30 21 -21 24 -31 19 -65 -3 -22 -2 -40 3 -40 14 0 21 -49 8 -54 -7 -3 -7 -5 2 -5 6 -1 12 -11 12 -23 0 -12 8 -30 17 -40 15 -17 15 -20 3 -28 -12 -7 -12 -12 -2 -22 6 -6 12 -21 12 -32 0 -11 7 -27 16 -37 13 -14 13 -22 4 -39 -10 -18 -9 -21 1 -15 9 6 11 2 7 -13 -3 -12 1 -28 11 -39 9 -10 17 -37 18 -61 0 -23 6 -49 13 -57 7 -8 13 -36 13 -62 1 -29 8 -53 17 -61 13 -12 13 -12 0 -6 -13 7 -13 5 -1 -9 12 -15 11 -17 -8 -17 -17 0 -21 6 -20 28 3 43 0 54 -12 46 -8 -4 -9 1 -4 16 5 15 4 20 -4 16 -16 -11 -24 19 -11 43 7 14 7 21 0 21 -5 0 -10 11 -10 25 0 13 -7 28 -16 33 -12 6 -15 17 -11 32 3 13 0 28 -8 37 -8 7 -12 20 -9 28 4 8 1 15 -5 15 -7 0 -10 13 -7 36 3 25 0 37 -10 41 -8 3 -13 11 -11 17 3 7 -1 20 -8 29 -7 9 -10 28 -7 42 2 14 0 25 -6 25 -6 0 -12 10 -14 23 -2 14 -9 21 -21 21 -17 -2 -17 -1 -2 16 15 16 15 23 4 54 -7 20 -17 36 -22 36 -5 0 -7 13 -4 29 4 18 -1 41 -13 65 -11 19 -18 46 -16 58 4 28 -22 71 -39 64 -7 -2 -18 0 -24 5 -6 5 -9 6 -7 3 3 -3 0 -19 -6 -35 -9 -26 -7 -33 18 -57 16 -14 33 -25 37 -24 5 1 5 -3 2 -9 -5 -8 -10 -8 -18 0 -18 18 -29 13 -17 -8 5 -11 10 -29 10 -41 0 -12 7 -29 16 -38 11 -11 15 -27 11 -53 -3 -26 0 -43 12 -56 10 -11 16 -34 15 -63 -1 -29 4 -49 14 -56 8 -6 12 -17 10 -25 -3 -8 -1 -22 3 -31 6 -10 5 -19 -1 -23 -6 -4 -3 -16 10 -32 11 -14 17 -30 14 -35 -3 -5 0 -15 6 -23 7 -8 10 -21 7 -29 -3 -8 1 -20 8 -26 9 -8 13 -21 9 -35 -3 -13 -1 -26 4 -29 6 -3 8 -15 5 -26 -3 -12 1 -22 10 -26 11 -4 14 -15 10 -40 -3 -19 -1 -34 4 -34 10 0 12 -10 16 -67 1 -17 5 -35 10 -39 10 -10 9 -26 -2 -20 -5 4 -12 0 -14 -6 -3 -7 -6 1 -6 19 -1 17 -6 35 -11 38 -6 3 -7 17 -4 29 4 16 0 25 -10 29 -9 4 -16 17 -16 31 0 13 -6 27 -12 29 -9 4 -10 8 -2 14 12 9 15 43 3 43 -4 0 -11 10 -15 23 -4 12 -12 25 -18 29 -7 5 -8 8 0 8 6 0 9 13 6 30 -2 17 -10 30 -18 30 -12 0 -12 4 -4 20 9 16 8 20 -6 20 -13 0 -15 6 -11 29 4 17 0 36 -9 50 -8 11 -12 21 -8 21 3 0 1 6 -6 14 -6 8 -11 23 -9 33 2 21 -22 83 -33 83 -4 0 -4 15 -2 33 4 23 0 38 -15 53 -11 12 -17 25 -14 28 4 3 1 6 -5 6 -8 0 -8 8 0 32 9 24 8 33 0 36 -7 2 -12 10 -12 18 0 8 -5 14 -11 14 -8 0 -9 13 -5 40 4 25 2 40 -4 40 -5 0 -10 9 -10 20 0 15 -7 20 -25 20 -14 0 -25 5 -25 10 0 6 7 10 15 10 8 0 15 4 15 9 0 5 2 16 5 23 3 8 -3 23 -13 33 -25 28 -33 54 -23 74 7 12 4 24 -11 41 -12 16 -21 21 -24 13 -3 -7 -11 -10 -17 -7 -7 2 -13 -8 -14 -26 -1 -20 3 -33 12 -37 8 -3 15 -12 15 -20 0 -13 3 -13 15 -3 13 10 15 9 15 -10 0 -17 -5 -21 -18 -18 -15 4 -17 0 -14 -26 2 -17 11 -36 19 -43 11 -8 14 -24 11 -55 -3 -34 0 -47 16 -61 15 -13 19 -28 17 -59 -1 -27 4 -47 15 -59 14 -15 14 -21 4 -34 -10 -12 -10 -15 0 -15 9 0 11 -9 7 -30 -5 -20 -3 -30 6 -30 7 0 18 -9 25 -21 8 -12 9 -18 3 -14 -15 8 -2 -77 12 -86 5 -4 7 -16 4 -28 -3 -12 -1 -24 5 -27 5 -3 7 -13 3 -21 -3 -9 2 -24 11 -34 9 -10 14 -27 11 -39 -3 -11 4 -38 15 -61 11 -23 17 -47 14 -54 -2 -7 1 -21 9 -31 9 -12 10 -23 4 -30 -6 -8 -4 -14 7 -18 10 -4 14 -12 10 -22 -6 -16 10 -78 27 -101 10 -13 0 -53 -12 -53 -5 0 -14 7 -22 16 -10 12 -10 20 -1 35 10 16 9 21 -7 31 -15 9 -17 16 -9 25 7 9 6 14 -6 19 -11 4 -15 14 -11 31 2 14 -2 35 -11 47 -8 13 -11 26 -8 29 4 4 0 9 -9 13 -12 4 -14 11 -7 30 7 18 6 26 -4 30 -7 3 -13 17 -13 32 0 14 -5 28 -11 30 -7 2 -9 15 -5 33 3 16 1 29 -4 29 -15 0 -34 66 -27 94 3 14 2 26 -2 26 -14 0 -37 59 -31 80 3 11 -1 24 -9 31 -8 6 -14 18 -14 25 0 8 -5 14 -11 14 -5 0 -7 5 -4 10 3 6 0 10 -7 10 -8 0 -7 5 4 16 15 15 15 19 -1 48 -9 17 -20 34 -25 37 -5 4 -6 17 -3 30 6 22 -5 53 -29 76 -10 10 -10 21 -2 45 9 24 8 33 0 36 -7 2 -12 9 -12 16 0 8 -12 13 -29 12 -27 -1 -29 -4 -27 -34 1 -21 11 -42 29 -58 30 -28 35 -39 12 -31 -8 4 -17 2 -20 -3 -4 -6 -2 -10 2 -10 5 0 10 -12 11 -27 1 -16 7 -29 12 -31 15 -5 12 -42 -2 -42 -9 -1 -8 -5 3 -13 8 -7 15 -24 14 -39 -1 -18 4 -28 17 -32 17 -4 18 -8 8 -27 -9 -17 -9 -23 0 -29 7 -5 10 -15 7 -24 -3 -8 0 -22 7 -29 8 -8 12 -25 9 -40 -4 -17 -1 -27 7 -27 7 0 10 -7 6 -16 -4 -9 -1 -23 6 -32 7 -8 13 -27 14 -41 0 -14 4 -35 9 -45 7 -15 5 -18 -6 -12 -8 4 -6 1 5 -8 12 -10 20 -32 23 -62 2 -26 7 -52 12 -58 7 -10 14 -35 24 -98 2 -9 9 -23 16 -32 9 -11 10 -20 2 -34 -8 -16 -7 -21 5 -26 8 -3 12 -11 9 -16 -4 -6 -1 -18 6 -26 7 -9 12 -29 11 -44 -1 -16 2 -31 7 -35 6 -3 8 -12 5 -19 -3 -7 2 -16 10 -19 13 -5 14 -11 5 -31 -10 -22 -14 -23 -26 -10 -8 8 -12 22 -8 34 5 15 2 20 -10 20 -13 0 -16 6 -11 24 3 14 1 28 -5 31 -6 4 -8 18 -5 30 3 13 2 27 -4 30 -5 3 -10 15 -10 25 0 10 -9 25 -21 33 -14 10 -17 17 -9 22 6 4 9 13 6 20 -3 8 0 16 7 19 7 2 4 5 -5 5 -11 1 -18 9 -18 20 0 11 -5 23 -11 27 -6 3 -9 17 -6 31 2 13 -2 30 -10 38 -8 8 -12 19 -9 24 3 5 -1 14 -10 21 -8 7 -12 20 -9 28 6 16 -15 83 -29 93 -5 4 -6 16 -3 28 3 12 1 24 -4 27 -5 3 -9 16 -9 29 0 13 -5 27 -10 30 -6 4 -10 16 -9 28 3 31 -23 88 -37 83 -8 -3 -6 7 4 26 13 27 13 33 1 42 -21 16 -38 61 -32 84 3 11 -6 36 -20 59 -16 25 -22 44 -17 54 10 18 -15 79 -32 78 -10 0 -10 -2 0 -6 19 -8 3 -23 -21 -19 -12 1 -17 1 -10 -1 8 -3 10 -15 7 -32 -5 -25 -2 -30 25 -42 32 -14 38 -24 21 -34 -5 -3 -10 -1 -10 5 0 6 -5 8 -11 4 -6 -3 -8 -17 -4 -33 4 -14 8 -30 9 -36 1 -5 7 -19 13 -30 6 -11 10 -36 8 -55 -2 -26 3 -40 19 -53 13 -12 17 -20 10 -23 -13 -5 -3 -45 22 -95 10 -20 10 -29 2 -37 -9 -9 -9 -12 0 -12 8 0 11 -9 8 -24 -3 -14 2 -30 10 -37 8 -7 12 -20 8 -34 -3 -13 -1 -26 5 -29 6 -4 11 -18 11 -31 0 -13 4 -26 9 -30 5 -3 8 -16 5 -30 -2 -13 0 -27 6 -30 6 -4 7 -11 4 -17 -4 -6 -1 -14 7 -18 8 -5 12 -23 11 -44 -2 -20 1 -36 6 -36 11 0 33 -70 26 -82 -3 -5 2 -20 11 -35 9 -14 12 -22 6 -19 -16 11 -13 -10 4 -24 9 -7 13 -21 9 -35 -3 -13 3 -41 15 -65 18 -37 19 -45 7 -62 -14 -20 -14 -20 -26 2 -6 12 -10 31 -7 41 3 12 1 17 -5 13 -7 -5 -9 3 -5 22 3 18 0 32 -9 39 -7 5 -15 25 -16 43 -1 17 -6 32 -10 32 -4 0 -5 7 -2 15 4 8 -1 17 -9 21 -10 4 -15 20 -15 56 0 35 -5 55 -15 63 -10 7 -14 20 -10 33 3 13 1 22 -6 22 -6 0 -11 11 -11 24 0 14 -8 32 -17 41 -12 12 -14 22 -7 33 10 16 -12 82 -28 82 -4 0 -5 13 -2 29 4 16 1 32 -5 35 -6 4 -11 16 -11 27 0 10 -5 19 -10 19 -6 0 -8 11 -4 25 4 15 1 32 -6 40 -7 9 -10 18 -6 22 3 3 -1 14 -10 24 -9 10 -14 27 -11 39 3 11 1 20 -5 20 -6 0 -8 7 -4 15 3 8 1 15 -5 15 -6 0 -8 7 -5 16 4 11 2 15 -8 11 -11 -4 -13 1 -10 20 3 14 5 28 6 32 0 3 -5 21 -12 40 -11 28 -14 31 -22 17 -6 -11 -16 -15 -30 -10 -18 5 -19 3 -13 -27 4 -19 14 -43 22 -55 7 -12 11 -29 7 -38 -4 -9 -1 -16 6 -16 7 0 10 -6 7 -14 -3 -7 1 -23 10 -35 12 -17 12 -25 3 -36 -8 -10 -9 -19 -3 -27 6 -7 13 -25 17 -40 3 -16 11 -28 16 -28 5 0 7 -13 4 -29 -4 -16 -1 -32 5 -35 6 -4 9 -12 5 -17 -3 -6 2 -20 13 -31 13 -15 15 -22 6 -25 -7 -3 -13 -11 -13 -19 0 -9 5 -12 10 -9 6 4 10 -7 10 -24 0 -17 5 -31 11 -31 6 0 9 -10 8 -22 -2 -13 1 -29 5 -37 7 -10 5 -12 -5 -7 -8 4 -6 1 5 -8 10 -8 15 -20 11 -25 -3 -6 1 -18 10 -27 12 -13 13 -19 3 -31 -9 -11 -9 -16 0 -22 7 -4 13 -19 14 -34 1 -15 6 -27 11 -27 5 0 7 -13 4 -29 -4 -21 -2 -31 9 -35 8 -3 12 -11 9 -17 -4 -5 1 -20 12 -31 13 -15 15 -22 6 -25 -18 -7 -16 -40 3 -47 8 -3 12 -11 9 -16 -4 -6 -2 -17 5 -25 6 -7 9 -28 6 -45 -3 -21 0 -33 10 -37 8 -3 11 -10 8 -15 -4 -6 -1 -14 6 -18 8 -5 10 -17 6 -34 -4 -15 -11 -24 -16 -21 -6 4 -8 11 -5 16 4 5 2 9 -3 9 -9 0 -26 56 -23 74 1 5 -6 17 -15 27 -9 10 -14 25 -11 33 4 9 1 18 -4 22 -6 3 -9 15 -6 25 3 12 -2 24 -15 33 -15 11 -18 18 -10 32 10 18 9 22 -22 83 -12 25 -14 37 -5 47 9 11 7 15 -5 20 -10 4 -14 13 -11 24 3 11 0 20 -10 23 -8 4 -15 17 -14 29 1 37 -7 77 -19 91 -6 7 -14 36 -18 64 -4 30 -12 54 -20 57 -10 4 -12 14 -8 30 3 13 1 27 -5 30 -6 4 -11 16 -11 26 0 10 -6 20 -12 22 -10 4 -10 10 -1 30 10 22 9 27 -4 32 -8 4 -13 13 -10 20 3 8 -1 20 -9 27 -11 9 -14 22 -10 41 3 18 2 27 -4 23 -6 -3 -10 4 -10 17 0 13 -9 29 -20 36 -11 7 -20 18 -20 25 0 8 3 8 9 -2 7 -11 10 -10 13 5 4 23 -14 84 -24 84 -5 0 -8 12 -8 28 0 50 -11 74 -31 69 -11 -3 -22 0 -26 5 -3 6 -1 8 5 5 6 -5 8 1 5 15 -4 18 -3 20 6 8 7 -11 9 -2 6 34 -3 27 -6 51 -8 52 -1 1 -18 -1 -37 -6 -19 -4 -29 -8 -22 -9 6 -1 12 -11 12 -24 0 -13 5 -28 12 -35 6 -6 13 -26 14 -44 3 -29 16 -84 31 -128 3 -8 6 -26 7 -39 1 -13 9 -29 19 -36 17 -12 24 -31 8 -21 -5 3 -12 -1 -15 -10 -8 -22 -8 -26 4 -19 6 4 10 -5 10 -19 0 -14 5 -26 11 -26 5 0 8 -4 4 -9 -3 -5 0 -13 6 -17 8 -5 8 -9 -1 -14 -9 -6 -9 -12 0 -30 6 -12 9 -28 6 -36 -3 -8 1 -14 10 -14 10 0 13 -7 8 -24 -3 -15 0 -33 9 -47 9 -12 13 -28 10 -35 -3 -8 0 -14 7 -14 8 0 9 -10 5 -30 -4 -19 -3 -30 4 -30 7 0 9 -10 5 -24 -4 -16 -1 -25 11 -29 11 -5 14 -14 9 -32 -3 -14 -1 -31 6 -40 6 -8 9 -19 5 -25 -3 -5 -2 -10 4 -10 15 0 24 -39 12 -54 -8 -10 -7 -17 4 -26 9 -7 14 -19 11 -27 -3 -7 1 -13 8 -13 10 0 13 -9 10 -29 -3 -18 3 -47 15 -72 16 -32 18 -46 9 -56 -8 -10 -6 -20 13 -40 13 -14 18 -23 12 -19 -8 5 -13 1 -13 -9 0 -11 5 -15 14 -12 11 4 13 -1 10 -20 -3 -14 2 -40 10 -57 18 -39 20 -55 11 -83 -7 -21 -7 -21 -26 -2 -13 13 -17 27 -13 44 4 16 2 25 -6 25 -6 0 -9 8 -5 19 3 10 -1 23 -8 29 -8 7 -13 22 -12 34 1 13 -2 29 -8 36 -5 7 -7 15 -3 19 3 3 -1 14 -10 24 -9 10 -14 25 -11 33 4 9 2 18 -3 21 -6 4 -10 19 -10 35 0 16 -7 30 -16 34 -11 4 -13 10 -6 22 6 11 5 25 -4 42 -7 13 -10 31 -7 38 3 8 -1 14 -11 14 -12 0 -15 6 -10 25 4 16 2 25 -6 25 -7 0 -10 8 -7 19 3 11 -1 28 -7 38 -7 10 -11 28 -10 41 1 12 -3 25 -7 28 -5 3 -9 15 -9 28 0 12 -5 27 -11 33 -7 7 -13 27 -15 47 -2 19 -10 46 -19 60 -9 14 -14 29 -11 34 7 11 -15 72 -27 72 -4 0 -7 15 -6 33 3 36 -9 79 -23 88 -6 4 -12 28 -14 55 -2 32 -10 54 -22 64 -16 14 -17 18 -5 29 11 10 12 16 4 24 -6 6 -11 19 -11 28 0 9 -7 19 -15 23 -11 4 -15 18 -13 51 0 25 -4 51 -10 57 -7 7 -12 20 -12 30 0 21 -60 269 -91 373 -11 39 -24 84 -29 100 -22 79 -81 229 -92 237 -9 5 -4 7 12 6 14 0 41 4 62 9 26 8 40 8 49 -1 9 -8 11 -7 6 6 -5 13 1 19 26 23 18 3 48 5 67 5 54 -2 144 21 158 42 22 30 49 40 72 26 16 -11 22 -10 34 7 7 10 12 25 9 31 -3 7 10 20 28 29 31 17 32 17 25 -4 -19 -65 -19 -68 7 -37 39 46 52 75 40 87 -14 14 -103 -30 -208 -101 -71 -47 -72 -47 -176 -55 l-105 -7 -65 65 c-64 63 -138 107 -251 147 l-49 17 61 22 c79 29 119 63 104 88 -27 44 -193 57 -369 28 -49 -8 -90 -13 -91 -12 -1 1 51 42 116 90 114 85 137 108 124 128 -14 23 -165 -12 -288 -66 -14 -6 -11 2 13 35 17 24 31 51 31 62 0 33 -44 20 -156 -48z m-2035 -438 c-2 -2 -74 -32 -159 -67 -182 -74 -501 -234 -638 -320 -104 -65 -240 -163 -303 -218 -38 -33 -40 -33 -59 -16 -46 41 -30 58 175 182 203 124 484 259 734 352 42 16 112 43 156 59 75 29 104 37 94 28z m2633 -826 c159 -329 165 -342 191 -400 14 -30 39 -85 56 -123 17 -37 31 -71 31 -75 0 -5 7 -23 16 -41 9 -17 17 -37 18 -44 3 -11 6 -22 23 -64 3 -10 7 -20 8 -23 1 -3 4 -12 8 -20 3 -8 26 -74 50 -147 35 -106 40 -129 26 -120 -10 6 -15 15 -12 21 3 5 2 6 -4 3 -5 -3 -28 3 -50 14 -67 33 -125 40 -228 28 -55 -7 -94 -21 -182 -66 -62 -31 -122 -66 -133 -78 -11 -12 -37 -67 -58 -123 -22 -56 -42 -106 -47 -110 -10 -10 2 28 40 126 18 45 30 82 26 82 -3 0 -34 -22 -68 -50 -38 -31 -63 -45 -66 -37 -3 8 -10 7 -25 -6 -24 -22 -43 -94 -47 -177 -2 -49 0 -58 14 -55 9 2 84 37 168 79 217 108 360 167 420 173 50 6 70 2 211 -35 l64 -17 -9 -80 c-13 -127 -10 -409 4 -427 7 -8 37 -64 68 -124 30 -60 75 -140 99 -179 l44 -70 6 -260 c7 -284 8 -783 1 -855 -2 -25 -7 -90 -10 -145 -10 -184 -14 -204 -53 -277 -73 -137 -82 -153 -93 -168 -12 -18 -58 -103 -95 -175 -14 -27 -35 -68 -48 -90 -66 -114 -96 -167 -96 -173 0 -3 -6 -13 -14 -21 -8 -9 -26 -41 -42 -71 -15 -30 -31 -57 -34 -60 -4 -3 -14 -20 -23 -37 -9 -18 -25 -48 -34 -65 -9 -18 -19 -35 -23 -38 -7 -6 -70 -108 -70 -115 0 -2 -20 -33 -45 -69 -25 -37 -45 -70 -45 -74 0 -52 -289 -131 -627 -172 l-170 -20 -249 54 c-384 84 -480 110 -778 216 -89 31 -300 122 -386 165 -26 13 -71 53 -105 91 -90 103 -246 268 -263 277 -25 16 6 -30 75 -112 84 -97 265 -281 277 -281 5 0 17 -7 26 -15 24 -21 254 -124 370 -166 69 -24 125 -54 210 -112 63 -43 222 -151 353 -239 266 -178 250 -158 208 -253 -19 -42 -49 -129 -55 -161 -2 -10 -9 -32 -16 -49 -6 -16 -11 -32 -11 -35 0 -3 -4 -23 -10 -45 -6 -22 -13 -47 -15 -55 -2 -8 -10 -40 -19 -70 -8 -30 -18 -70 -20 -89 -3 -18 -7 -36 -9 -40 -3 -4 -7 -28 -10 -53 -3 -26 -11 -59 -17 -75 -6 -15 -10 -29 -10 -31 1 -1 -1 -12 -4 -25 -2 -12 -7 -38 -11 -57 -3 -19 -10 -55 -14 -80 -5 -25 -14 -70 -19 -100 -16 -90 -21 -114 -27 -140 -4 -14 -8 -38 -10 -55 -2 -16 -7 -41 -10 -55 -4 -14 -8 -34 -9 -45 -2 -11 -8 -51 -15 -89 -17 -109 -30 -214 -36 -301 -3 -44 -7 -87 -10 -96 -4 -15 -116 92 -301 291 -178 191 -410 473 -443 540 -103 208 -499 820 -593 918 -86 90 -301 252 -492 372 -230 145 -647 390 -662 390 -6 0 -28 7 -48 16 l-38 16 94 52 c168 93 208 124 239 185 82 164 179 552 211 849 12 118 14 121 63 102 62 -23 139 30 189 131 l25 49 21 -69 c25 -84 83 -209 89 -193 2 7 -17 69 -42 137 -25 69 -46 137 -46 151 0 40 -19 25 -77 -57 -91 -128 -117 -139 -218 -95 -159 71 -345 243 -480 446 -122 183 -300 583 -298 670 2 84 85 278 171 400 61 86 151 180 172 180 17 0 152 -100 280 -208 36 -30 115 -107 177 -170 107 -109 113 -119 153 -216 118 -284 186 -431 227 -485 41 -55 177 -191 191 -191 17 0 15 42 -8 210 -11 80 -27 208 -35 285 -8 77 -19 174 -24 215 -5 41 -9 122 -10 180 0 58 -3 157 -6 220 -8 135 -12 125 135 350 150 231 300 483 300 504 -1 24 -37 110 -184 439 l-107 238 108 183 108 183 500 -3 c275 -2 654 -6 842 -9 216 -3 349 -2 360 5 29 15 387 149 522 195 l124 41 94 -35 95 -35 100 -206z m-3868 213 c25 -89 28 -133 14 -165 -8 -18 -23 -73 -33 -123 -10 -49 -20 -93 -24 -97 -7 -8 -63 41 -87 76 -31 49 3 197 66 285 32 44 55 52 64 24z m-184 -378 c23 -36 48 -65 55 -65 8 0 31 -33 53 -72 39 -72 40 -75 45 -203 13 -296 85 -866 135 -1063 l28 -113 -28 6 c-20 5 -37 0 -59 -16 -26 -18 -33 -19 -44 -8 -34 34 -95 419 -160 1004 -14 127 -28 242 -31 257 -3 14 -5 45 -6 69 0 23 -9 61 -19 85 -22 48 -37 184 -21 184 5 0 29 -29 52 -65z m98 -50 c-3 -3 -9 2 -12 12 -6 14 -5 15 5 6 7 -7 10 -15 7 -18z m4367 -335 c1 -11 -2 -20 -6 -20 -9 0 -19 37 -11 44 8 9 16 -2 17 -24z m7 -61 c-2 -7 5 -19 15 -26 14 -11 15 -17 6 -32 -10 -16 -8 -27 7 -60 11 -22 20 -53 20 -70 0 -16 4 -32 10 -36 5 -3 6 -13 3 -22 -4 -10 -2 -14 4 -10 15 10 22 -14 11 -36 -6 -12 -4 -24 6 -38 8 -12 12 -28 9 -35 -3 -8 0 -14 6 -14 14 0 15 -37 1 -45 -5 -3 -1 -14 10 -25 11 -11 20 -27 20 -35 0 -8 5 -15 10 -15 7 0 7 -6 0 -19 -7 -15 -5 -31 10 -66 12 -28 18 -56 14 -71 -4 -15 -2 -24 6 -24 7 0 10 -6 7 -14 -3 -8 3 -23 14 -34 11 -12 15 -23 9 -27 -13 -8 -13 -45 0 -45 6 0 10 -9 10 -20 0 -11 5 -20 10 -20 18 0 11 -39 -9 -50 -25 -13 -31 -3 -37 58 -2 26 -11 52 -19 58 -18 13 -20 34 -3 34 9 0 9 3 0 12 -7 7 -12 22 -12 33 0 12 -9 32 -20 45 -15 17 -17 26 -9 37 7 8 8 13 1 13 -5 0 -13 30 -17 68 -3 37 -22 121 -42 187 -20 66 -37 136 -40 155 -2 19 -9 75 -16 123 -9 59 -10 86 -3 83 6 -2 10 -10 8 -17z m1055 -265 c7 -20 -8 -36 -25 -25 -14 8 -6 41 9 41 5 0 12 -7 16 -16z m-87 -204 c0 -5 -5 -10 -11 -10 -5 0 -7 5 -4 10 3 6 8 10 11 10 2 0 4 -4 4 -10z m-216 -66 c-17 -7 -5 -44 14 -44 12 0 13 -3 5 -11 -6 -6 -10 -17 -9 -23 2 -6 1 -8 -1 -3 -3 4 -10 7 -17 7 -8 0 -11 10 -8 30 3 19 0 30 -7 30 -7 0 -9 5 -6 10 3 6 14 10 23 9 9 0 12 -3 6 -5z m122 -33 c0 -11 -4 -17 -8 -15 -4 3 -8 12 -8 20 0 8 4 14 8 14 4 0 8 -9 8 -19z m-221 -120 c3 -5 2 -12 -3 -15 -5 -3 -9 1 -9 9 0 17 3 19 12 6z m150 -21 c3 -6 -1 -7 -9 -4 -18 7 -21 14 -7 14 6 0 13 -4 16 -10z m-251 -25 c-3 -19 0 -25 13 -26 11 0 13 -3 5 -6 -6 -2 -10 -9 -6 -14 3 -5 1 -9 -5 -9 -5 0 -12 14 -16 30 -4 17 -11 30 -16 30 -5 0 -9 5 -9 10 0 6 9 10 19 10 16 0 19 -5 15 -25z m-445 -159 c-4 -22 -4 -43 0 -46 3 -3 15 -18 25 -34 13 -20 15 -31 7 -39 -15 -15 -14 -44 2 -54 22 -13 29 -59 12 -73 -16 -13 -17 -11 -17 32 -1 17 -5 25 -13 22 -9 -4 -11 3 -8 20 4 17 -1 27 -16 35 -19 11 -21 20 -21 106 0 90 1 95 18 84 16 -10 18 -19 11 -53z m468 48 c-3 -3 -12 -4 -19 -1 -8 3 -5 6 6 6 11 1 17 -2 13 -5z m-99 -55 c11 -18 11 -23 0 -33 -7 -6 -10 -7 -6 -2 4 4 1 15 -7 23 -8 8 -15 19 -15 24 0 16 15 10 28 -12z m-123 1 c-3 -5 -3 -15 1 -22 12 -18 13 -79 2 -72 -5 3 -7 12 -4 19 3 8 -2 19 -9 25 -8 7 -13 16 -10 20 3 5 1 11 -5 15 -17 11 -11 25 11 25 11 0 17 -4 14 -10z m-109 -57 c-3 -8 -2 -11 3 -8 16 10 21 -12 6 -25 -8 -7 -12 -17 -8 -23 3 -6 -5 -2 -20 9 -23 17 -24 20 -10 32 9 6 12 12 6 12 -15 0 -24 26 -16 47 6 14 9 13 25 -7 10 -13 16 -30 14 -37z m248 -21 c3 -5 -1 -9 -9 -9 -8 0 -12 4 -9 9 3 4 7 8 9 8 2 0 6 -4 9 -8z m-229 -72 c-3 -5 0 -12 6 -16 8 -4 7 -9 -2 -15 -10 -6 -11 -9 -1 -9 6 0 12 -4 12 -8 0 -5 -6 -9 -14 -9 -9 0 -13 8 -10 23 3 14 -2 24 -13 28 -15 6 -15 9 -3 16 16 10 33 3 25 -10z m-101 -142 c-5 -8 -2 -9 9 -5 9 3 19 2 21 -2 4 -7 -28 -8 -42 -2 -5 2 8 21 14 21 3 0 2 -5 -2 -12z" />
    <path d="M5785 6370 c-179 -20 -264 -46 -366 -112 -93 -59 -196 -146 -235 -196 -51 -67 -48 -71 49 -56 406 61 1011 80 1157 35 14 -4 52 -7 85 -7 51 1 60 4 57 19 -2 9 2 17 7 17 17 0 36 79 23 92 -9 9 -15 2 -27 -26 -20 -47 -28 -43 -13 6 13 43 -1 113 -22 113 -12 0 -14 -11 -12 -52 4 -54 -4 -93 -17 -93 -5 0 -7 10 -4 23 2 12 -5 49 -15 82 -17 58 -20 60 -53 62 -19 0 -54 9 -79 18 -25 9 -65 20 -90 25 -25 5 -81 18 -125 30 -96 25 -211 32 -320 20z m549 -223 c22 -38 14 -30 -39 38 -56 73 -63 86 -18 37 21 -23 47 -57 57 -75z" />
    <path d="M7086 6203 c-9 -58 -7 -151 4 -158 12 -7 17 18 25 118 6 64 4 77 -8 77 -9 0 -17 -14 -21 -37z" />
    <path d="M7745 6000 c-226 -43 -253 -52 -327 -99 -55 -34 -60 -41 -89 -116 -45 -117 -64 -232 -37 -223 7 3 15 15 18 29 5 20 7 21 13 7 9 -24 44 -23 104 3 158 69 370 131 481 142 23 3 45 7 48 10 11 11 -41 93 -93 148 -30 31 -50 60 -45 63 6 3 26 8 46 11 51 6 67 18 36 26 -32 9 -104 9 -155 -1z m7 -89 c64 -37 157 -112 158 -128 0 -7 -23 -14 -57 -18 -32 -4 -103 -21 -158 -38 -55 -17 -106 -33 -112 -35 -9 -2 -9 6 2 32 25 59 21 66 -29 60 -80 -11 -69 34 16 66 29 10 44 22 48 39 4 20 45 47 73 50 4 1 31 -12 59 -28z" />
    <path d="M5905 5810 c-248 -51 -495 -132 -495 -162 0 -12 13 -8 85 20 67 26 118 42 122 38 2 -2 -26 -17 -61 -35 -38 -18 -96 -61 -141 -103 -72 -67 -94 -99 -43 -64 12 9 42 16 67 16 25 0 96 5 160 12 88 9 168 8 345 -1 127 -7 251 -16 276 -21 43 -8 59 -6 48 6 -14 13 -132 33 -240 40 l-117 7 14 28 c23 44 19 52 -19 45 -41 -8 -66 1 -66 23 0 21 36 42 87 50 29 5 39 11 41 28 2 16 14 25 41 33 94 25 91 25 176 -36 102 -72 216 -170 235 -200 14 -24 30 -32 30 -16 0 35 -191 255 -233 268 -18 6 -16 8 14 21 18 8 45 13 59 12 39 -2 46 1 30 11 -8 5 -73 9 -145 9 -103 0 -159 -6 -270 -29z m-366 -233 c16 -20 3 -27 -48 -27 l-46 0 30 20 c35 23 49 25 64 7z" />
    <path d="M3570 5497 c-42 -35 -100 -98 -132 -142 -50 -70 -58 -86 -58 -127 0 -54 15 -175 35 -280 11 -57 29 -48 21 10 -4 26 -11 94 -17 152 -5 58 -12 114 -14 126 -3 11 1 28 8 38 11 16 13 15 15 -7 1 -13 6 -35 11 -48 7 -18 8 -12 4 26 -4 46 -2 53 27 85 18 19 27 27 20 18 -6 -9 -9 -22 -5 -28 4 -6 -1 -20 -11 -31 -16 -17 -16 -19 -1 -19 10 0 17 5 17 11 0 6 7 3 16 -5 19 -20 23 -20 47 2 11 9 18 12 14 6 -7 -12 219 -108 234 -99 11 7 -1 -26 -29 -82 -30 -59 -72 -192 -72 -227 0 -40 68 -181 125 -261 24 -33 68 -84 98 -114 46 -44 59 -52 78 -46 44 14 268 125 275 136 13 22 -68 -1 -179 -51 l-107 -48 -28 27 c-80 79 -164 192 -166 227 0 12 -5 20 -10 16 -5 -3 -6 3 -2 14 4 10 4 15 0 11 -4 -4 -15 5 -24 21 -13 20 -15 31 -6 41 8 11 8 13 -1 7 -10 -5 -13 2 -13 26 0 29 9 60 46 168 4 13 6 13 15 0 8 -12 9 -10 4 6 -3 12 0 34 7 48 l12 27 14 -23 c9 -15 11 -17 8 -4 -5 13 -2 17 9 13 8 -4 17 -2 20 4 4 5 10 7 15 4 5 -3 16 8 25 25 8 16 18 30 21 30 3 0 2 -5 -1 -11 -4 -6 2 -17 14 -25 12 -9 18 -20 15 -26 -5 -7 -2 -8 5 -3 9 5 10 10 2 18 -6 6 -7 16 -1 28 7 11 7 20 0 24 -5 3 -10 12 -10 18 0 7 9 1 19 -13 11 -13 17 -28 14 -32 -2 -5 -1 -8 4 -7 21 4 24 -2 12 -18 -13 -16 -12 -17 2 -5 15 11 27 1 96 -79 l78 -91 -19 -79 c-29 -119 -20 -132 167 -233 76 -41 77 -41 77 -23 0 16 -81 77 -149 111 -71 37 -76 52 -52 168 l12 57 -67 83 c-178 219 -465 518 -496 518 -7 0 -47 -28 -88 -63z m196 -69 l29 -33 -32 29 c-31 28 -38 36 -30 36 2 0 16 -15 33 -32z m138 -281 c-2 -7 -17 -13 -32 -13 l-27 -1 28 11 c15 7 24 16 20 21 -5 4 -3 5 4 1 7 -4 10 -12 7 -19z" />
    <path d="M7326 5482 c-7 -12 39 -21 124 -22 91 -2 96 -1 85 9 -15 14 -201 26 -209 13z" />
    <path d="M6241 5434 c-29 -8 -57 -17 -62 -20 -15 -9 -10 -24 9 -24 28 0 142 41 142 51 0 12 -25 10 -89 -7z" />
    <path d="M6330 5404 c-49 -16 -200 -88 -200 -95 0 -13 9 -11 101 21 113 41 159 61 159 72 0 9 -35 10 -60 2z" />
    <path d="M3460 5305 c-8 -9 -8 -15 -2 -15 12 0 26 19 19 26 -2 2 -10 -2 -17 -11z" />
    <path d="M3478 5263 c-11 -3 -16 -14 -16 -34 1 -28 20 -40 33 -19 3 5 0 7 -8 4 -19 -7 -18 28 2 43 17 13 16 13 -11 6z" />
    <path d="M3544 5255 c-4 -10 -10 -12 -18 -6 -7 6 -16 4 -24 -5 -11 -12 -10 -14 3 -14 9 0 13 -4 10 -10 -3 -5 -2 -10 2 -10 5 0 17 14 26 30 10 17 15 30 12 30 -3 0 -8 -7 -11 -15z" />
    <path d="M3451 5174 c0 -11 3 -14 6 -6 3 7 2 16 -1 19 -3 4 -6 -2 -5 -13z" />
    <path d="M3490 5171 c0 -7 -4 -10 -9 -7 -5 4 -7 -4 -4 -16 4 -19 3 -21 -7 -8 -10 13 -11 12 -6 -3 3 -10 6 -24 7 -30 0 -7 7 6 15 27 8 22 12 42 9 44 -3 3 -5 0 -5 -7z" />
    <path d="M3925 5138 c4 -11 2 -18 -4 -18 -6 0 -11 -5 -11 -12 0 -8 6 -6 17 5 14 14 15 19 4 29 -10 11 -11 10 -6 -4z" />
    <path d="M3886 5098 c5 -7 2 -9 -9 -5 -11 4 -14 2 -10 -9 4 -10 9 -12 18 -4 6 5 16 6 21 2 4 -4 2 1 -5 11 -15 19 -26 23 -15 5z" />
    <path d="M4026 5102 c-3 -5 1 -9 9 -9 8 0 12 4 9 9 -3 4 -7 8 -9 8 -2 0 -6 -4 -9 -8z" />
    <path d="M3944 5078 l-19 -23 23 19 c12 11 22 21 22 23 0 8 -8 2 -26 -19z" />
    <path d="M3824 5072 c4 -3 14 -7 22 -8 9 -1 13 0 10 4 -4 3 -14 7 -22 8 -9 1 -13 0 -10 -4z" />
    <path d="M3837 5021 c-4 -17 -3 -21 5 -13 5 5 8 16 6 23 -3 8 -7 3 -11 -10z" />
    <path d="M3796 4957 c-16 -12 -16 -13 2 -13 10 0 19 6 19 13 0 7 -1 13 -2 13 -1 0 -9 -6 -19 -13z" />
    <path d="M3880 4949 c0 -5 5 -7 10 -4 6 3 10 8 10 11 0 2 -4 4 -10 4 -5 0 -10 -5 -10 -11z" />
    <path d="M3796 4917 c3 -10 9 -15 12 -12 3 3 0 11 -7 18 -10 9 -11 8 -5 -6z" />
    <path d="M6420 4813 c-41 -131 -25 -226 50 -301 27 -28 93 -52 106 -40 2 3 -19 23 -48 44 -80 60 -90 80 -90 165 -1 64 5 103 28 182 4 11 0 17 -10 17 -10 0 -22 -23 -36 -67z" />
    <path d="M7418 4864 c-4 -3 -2 -18 4 -32 6 -15 14 -36 19 -47 34 -85 41 -171 17 -210 -3 -5 -9 -25 -13 -42 -16 -75 46 -11 65 66 10 41 9 60 -5 113 -26 101 -67 173 -87 152z" />
    <path d="M6870 4665 c-14 -8 -55 -29 -92 -47 -67 -32 -128 -80 -128 -99 0 -14 17 -11 63 13 23 12 76 29 117 38 l75 16 17 -39 c13 -27 23 -37 35 -35 15 3 18 13 17 57 -3 87 -46 127 -104 96z" />
    <path d="M7309 4644 c-13 -15 -57 -51 -98 -81 -46 -35 -70 -58 -64 -64 16 -16 92 7 133 40 45 36 61 38 77 12 14 -22 46 -32 64 -20 11 7 7 22 -20 74 -39 72 -55 79 -92 39z" />
    <path d="M7055 4168 c-107 -14 -143 -20 -183 -32 -9 -3 -28 -7 -42 -10 -24 -5 -53 -13 -130 -35 -48 -14 -111 -31 -133 -36 -10 -2 -32 -9 -50 -15 -93 -30 -162 -50 -173 -50 -7 0 -33 -7 -56 -14 -24 -8 -56 -18 -73 -21 -16 -3 -34 -7 -40 -9 -43 -12 -66 -17 -155 -32 -19 -3 -38 -8 -42 -11 -14 -8 -9 -23 7 -23 9 0 48 -18 88 -41 180 -102 469 -202 729 -251 157 -30 172 -31 240 -20 96 17 239 93 371 198 107 85 247 225 247 247 0 15 -89 61 -201 106 -109 43 -287 65 -404 49z m265 -48 c93 -15 170 -46 170 -70 0 -9 -12 -39 -26 -66 -15 -27 -48 -92 -75 -144 l-48 -95 -92 -59 c-108 -70 -161 -86 -284 -86 -91 0 -274 35 -395 75 l-50 17 24 19 c24 19 24 18 82 -10 44 -22 79 -31 137 -35 42 -3 77 -2 77 2 0 5 -37 14 -82 22 -49 8 -103 24 -135 41 l-54 29 -29 -22 c-25 -18 -37 -20 -88 -15 -78 8 -87 13 -114 55 -65 106 -78 128 -78 139 0 6 24 16 53 23 28 7 192 52 362 101 171 48 328 90 350 92 58 7 208 0 295 -13z" />
    <path d="M7766 4113 c5 -16 8 -52 8 -80 -1 -54 8 -67 25 -35 18 34 16 96 -4 120 -26 30 -39 28 -29 -5z" />
    <path d="M5902 4022 c-12 -12 -22 -26 -22 -32 0 -5 0 -11 -1 -12 -12 -34 -16 -100 -8 -125 17 -53 29 -38 29 33 0 40 6 79 16 100 22 45 14 64 -14 36z" />
    <path d="M7018 3411 c-202 -10 -171 -50 35 -44 106 2 156 15 165 41 4 13 7 13 -200 3z" />
    <path d="M8355 8356 c-90 -29 -146 -56 -140 -67 5 -8 61 7 80 21 12 9 147 50 165 50 10 0 10 -3 -1 -16 -15 -18 -69 -48 -69 -38 0 4 -10 -8 -22 -26 -13 -18 -34 -37 -47 -42 -19 -6 -22 -6 -14 4 13 16 -17 51 -33 40 -14 -9 -29 -66 -15 -58 20 13 21 -15 2 -41 -12 -14 -19 -28 -17 -30 4 -5 167 115 230 170 24 20 36 38 32 45 -11 18 -74 13 -151 -12z" />
    <path d="M8143 8234 c-7 -19 7 -46 27 -52 9 -3 11 1 7 12 -3 8 -3 15 1 15 19 -3 22 3 12 21 -13 24 -38 26 -47 4z" />
    <path d="M8036 8205 c-20 -20 -20 -22 2 -45 18 -20 19 -20 32 5 12 22 12 28 -2 41 -14 14 -17 14 -32 -1z" />
    <path d="M7921 8177 c-16 -16 -14 -32 6 -48 13 -11 15 -11 9 -1 -5 8 -1 21 8 31 14 16 15 19 3 24 -8 3 -20 0 -26 -6z" />
    <path d="M8470 8184 c-123 -16 -230 -44 -230 -60 0 -3 5 -2 10 1 6 3 22 -3 37 -15 l27 -21 22 26 c23 27 79 35 86 13 3 -8 12 -4 26 10 24 24 92 31 92 10 0 -9 3 -9 12 0 15 15 72 16 98 2 23 -12 16 -46 -13 -61 -16 -9 -22 -8 -29 5 -18 33 -54 15 -63 -32 -4 -22 -1 -32 7 -32 17 0 156 64 170 78 19 19 -2 51 -40 61 -45 13 -165 21 -212 15z" />
    <path d="M7797 8135 c-4 -25 22 -53 37 -38 12 12 6 25 -8 20 -10 -4 -13 -1 -10 8 3 8 13 11 22 7 16 -5 16 -5 0 11 -23 24 -35 21 -41 -8z" />
    <path d="M8172 8115 c-9 -19 -7 -26 9 -41 18 -17 20 -17 34 2 20 27 18 39 -9 52 -20 9 -25 7 -34 -13z" />
    <path d="M8067 8095 c-22 -21 -21 -34 1 -51 23 -18 35 -17 28 1 -3 8 -1 15 4 15 14 0 12 13 -3 34 -13 17 -14 17 -30 1z" />
    <path d="M8433 8059 c-9 -23 -8 -31 6 -43 24 -22 34 -20 48 10 10 22 9 29 -4 42 -24 25 -38 22 -50 -9z" />
    <path d="M7940 8059 c0 -25 17 -59 30 -59 18 0 23 49 7 65 -22 21 -37 19 -37 -6z" />
    <path d="M8317 8031 c-4 -17 0 -32 12 -44 17 -18 18 -17 35 8 19 29 11 49 -23 58 -14 3 -20 -2 -24 -22z" />
    <path d="M7830 8040 c-11 -7 -11 -13 0 -39 17 -42 27 -46 33 -16 2 14 0 28 -6 32 -6 4 -7 1 -2 -7 5 -9 4 -11 -4 -6 -9 6 -9 11 -1 21 13 16 -1 27 -20 15z" />
    <path d="M8217 8022 c-10 -2 -17 -11 -15 -20 1 -9 -1 -23 -5 -29 -5 -9 -3 -13 7 -13 9 0 16 -4 16 -10 0 -18 16 -10 30 14 10 20 10 27 -1 43 -8 10 -22 17 -32 15z" />
    <path d="M8103 7988 c-21 -28 -22 -36 -3 -58 16 -19 20 -20 20 -7 0 10 5 17 10 17 14 0 12 22 -4 43 -10 13 -15 14 -23 5z" />
    <path d="M8473 7963 c-18 -7 -16 -51 2 -69 12 -13 17 -13 28 -2 23 23 26 46 8 62 -19 17 -19 17 -38 9z" />
    <path d="M7972 7931 c-1 -37 22 -60 33 -34 8 17 9 29 6 53 0 6 -9 10 -19 10 -14 0 -19 -8 -20 -29z" />
    <path d="M8356 7925 c-21 -16 -18 -43 6 -59 14 -8 21 -6 32 9 20 27 20 42 -2 54 -12 6 -23 5 -36 -4z" />
    <path d="M7856 7906 c-7 -27 14 -49 34 -36 12 8 12 10 1 10 -9 0 -11 7 -7 23 4 16 1 24 -8 24 -8 0 -17 -10 -20 -21z" />
    <path d="M8247 7899 c-21 -12 -23 -55 -2 -63 18 -7 26 -7 23 -2 -2 2 5 13 15 23 16 19 16 20 0 36 -13 11 -23 13 -36 6z" />
    <path d="M8115 7853 c0 -42 35 -76 47 -46 13 33 8 49 -19 65 l-28 16 0 -35z" />
    <path d="M8623 7878 c-26 -13 -30 -43 -9 -64 21 -20 33 -17 53 12 16 25 16 27 0 36 -10 5 -15 13 -12 19 8 12 -4 11 -32 -3z" />
    <path d="M8000 7815 c0 -38 35 -66 45 -36 10 32 -5 70 -26 68 -14 -1 -19 -9 -19 -32z" />
    <path d="M8495 7841 c-19 -18 5 -71 32 -71 21 0 38 46 24 64 -11 13 -46 18 -56 7z" />
    <path d="M8390 7822 c-22 -10 -20 -52 2 -74 19 -19 20 -19 33 -1 18 23 18 43 1 66 -14 19 -14 19 -36 9z" />
    <path d="M7883 7797 c-2 -24 23 -64 33 -54 4 4 1 13 -5 21 -10 12 -9 14 8 9 22 -6 26 3 12 26 -16 25 -46 23 -48 -2z" />
    <path d="M8267 7783 c-14 -13 -6 -50 13 -68 17 -16 20 -16 20 -2 0 8 5 17 12 19 18 6 1 58 -21 58 -10 0 -21 -3 -24 -7z" />
    <path d="M8655 7766 c-25 -14 -28 -53 -5 -76 18 -18 19 -17 37 3 23 26 23 35 3 63 -12 16 -19 18 -35 10z" />
    <path d="M8158 7753 c-24 -6 -23 -39 2 -65 17 -19 20 -19 20 -5 0 9 4 17 9 17 5 0 11 6 14 14 7 18 -23 44 -45 39z" />
    <path d="M8518 7702 c3 -18 11 -36 18 -39 8 -3 14 -13 15 -22 0 -9 5 -4 11 12 5 15 14 27 19 27 13 0 11 38 -3 46 -6 4 -23 8 -38 9 -23 1 -25 -1 -22 -33z" />
    <path d="M8043 7723 c-20 -7 -15 -51 7 -63 16 -8 20 -8 20 4 0 8 5 16 11 18 12 4 2 35 -14 41 -7 2 -18 2 -24 0z" />
    <path d="M7929 7702 c-20 -4 -22 -50 -4 -69 10 -10 16 -9 27 5 19 22 2 69 -23 64z" />
    <path d="M8420 7700 c-20 -12 -21 -49 -2 -71 15 -17 16 -16 34 6 22 28 23 42 4 61 -17 16 -17 16 -36 4z" />
    <path d="M8312 7674 c-6 -7 -12 -17 -12 -23 0 -5 -6 -11 -12 -14 -9 -3 -5 -13 12 -31 l24 -27 13 23 c16 29 16 49 0 69 -10 14 -14 14 -25 3z" />
    <path d="M8200 7650 c0 -5 -5 -9 -11 -7 -19 4 -20 -55 -1 -69 24 -19 27 -17 41 13 9 19 9 29 2 31 -6 2 -11 12 -11 23 0 10 -4 19 -10 19 -5 0 -10 -4 -10 -10z" />
    <path d="M8569 7621 c-28 -29 -31 -53 -9 -73 20 -19 22 -19 41 -2 24 21 24 49 2 73 -17 17 -19 17 -34 2z" />
    <path d="M8060 7590 c11 -57 20 -67 40 -40 22 29 9 66 -25 72 -20 4 -21 2 -15 -32z" />
    <path d="M7965 7590 c-4 -6 -13 -9 -21 -6 -11 4 -12 1 -6 -12 5 -9 8 -21 6 -27 -2 -5 5 -21 16 -35 16 -20 20 -22 20 -7 0 9 5 17 10 17 14 0 12 23 -4 55 -9 17 -16 22 -21 15z" />
    <path d="M8319 7569 c-8 -38 -1 -73 16 -85 17 -12 21 -11 38 17 20 30 20 30 -2 50 -11 11 -21 15 -21 8 0 -8 -4 -8 -15 1 -8 7 -15 11 -16 9z" />
    <path d="M8217 7533 c-23 -6 -20 -58 5 -80 12 -11 18 -12 18 -4 0 7 5 9 10 6 6 -3 10 -2 10 4 0 5 2 15 5 23 7 19 -27 55 -48 51z" />
    <path d="M8110 7505 c-7 -8 -15 -13 -19 -11 -4 3 -6 -7 -5 -22 0 -14 6 -28 12 -30 7 -2 10 -7 7 -12 -3 -4 2 -13 10 -20 8 -7 16 -10 16 -6 3 14 5 22 13 44 5 15 3 29 -6 39 -7 9 -11 18 -10 20 10 13 -7 11 -18 -2z" />
    <path d="M8593 7502 c-27 -24 -9 -90 22 -78 7 2 18 -1 24 -7 9 -9 11 -8 6 5 -4 9 -2 25 3 35 8 14 5 23 -13 41 -21 21 -23 21 -42 4z" />
    <path d="M8100 7391 c0 -4 7 -17 16 -29 8 -12 10 -22 5 -22 -6 0 -11 -4 -11 -10 0 -5 6 -10 14 -10 8 0 18 -9 21 -20 3 -11 11 -20 16 -20 6 0 8 4 4 10 -3 5 0 18 6 28 8 13 9 28 2 48 -8 23 -16 29 -41 30 -18 1 -32 -1 -32 -5z" />
    <path d="M3504 2487 c-62 -67 -131 -145 -155 -173 -24 -29 -150 -175 -279 -325 -312 -363 -422 -498 -418 -511 2 -6 35 27 73 73 39 46 149 174 245 284 96 110 250 288 342 395 91 107 200 235 242 283 42 48 76 90 76 92 0 17 -28 -9 -126 -118z" />
    <path d="M3126 1212 c-3 -5 47 -76 111 -158 63 -82 183 -243 267 -359 83 -115 183 -251 222 -301 47 -60 73 -103 76 -125 3 -19 16 -87 29 -151 19 -96 27 -118 41 -118 20 0 19 9 -18 165 -13 55 -24 107 -24 116 0 13 -143 237 -160 249 -4 3 -62 80 -129 173 -182 251 -389 515 -403 516 -4 1 -9 -3 -12 -7z" />
  </g>
</svg>