<?xml version="1.0" encoding="UTF-8"?>
<svg version="1.2" baseProfile="tiny-ps" width="309" height="309" viewBox="0 0 309 309" fill="none" xmlns="http://www.w3.org/2000/svg">
  <g>
    <title>Jeff Jadulco</title>
    <path d="M214.879 36.6473C213.025 37.7597 211.387 38.7794 211.201 38.9339C211.047 39.0575 209.008 39.2429 206.721 39.3665C202.395 39.5519 195.195 40.0772 193.001 40.3244C192.291 40.4171 191.055 40.5407 190.189 40.6334C174.338 42.4874 159.32 46.0718 146.311 51.0467C133.982 55.7744 124.805 60.3476 117.42 65.477C115.319 66.8984 114.268 67.4855 113.681 67.4237C112.476 67.2692 111.085 68.6288 109.788 71.2862C108.799 73.3256 108.644 73.9436 108.521 76.3847L108.366 79.1348L107.563 78.3623C106.481 77.3426 105.74 77.3426 105.493 78.3623C105.184 79.6292 105.616 83.3372 106.296 84.944C106.667 85.8092 107.007 87.7559 107.223 89.9189C107.903 97.6748 108.15 100.301 108.304 101.043C108.366 101.476 108.521 102.65 108.613 103.669C108.799 105.554 109.108 108.212 109.695 112.63C110.189 116.524 111.178 121.653 111.982 124.62L112.692 127.37L111.765 127.184C110.869 126.999 110.622 127.184 108.459 129.378C104.72 133.241 101.908 138.061 100.734 142.603C99.8996 145.879 99.9305 146.466 101.321 150.514C104.133 158.795 107.872 165.778 112.754 171.866C115.072 174.739 119.027 177.953 124.033 180.919C124.62 181.259 124.62 181.352 123.106 190.962C122.271 196.215 119.089 207.648 117.42 211.48C116.771 212.932 116.462 213.148 112.321 215.373C106.358 218.587 104.844 219.483 103.824 220.441C101.754 222.356 96.2225 226.744 87.9413 232.955C79.1039 239.599 72.6767 244.697 62.8814 252.886C50.5832 263.144 34.9478 277.358 35.0096 278.193C35.0405 278.409 33.65 281.406 31.9196 284.898C30.1892 288.39 28.0571 292.901 27.1919 294.94C23.7002 302.944 21.3209 308.784 21.4445 308.938C21.8462 309.34 22.4951 308.598 23.144 306.961C24.5654 303.5 34.0208 282.364 35.2259 279.985C36.3074 277.791 36.8636 277.173 41.3132 273.094C54.5075 260.981 77.5898 241.731 91.2785 231.472C97.0877 227.084 99.6833 225.014 103.144 221.955C104.72 220.533 106.265 219.39 106.574 219.39C107.717 219.39 110.282 220.502 113.557 222.418C125.578 229.432 133.55 234.438 138.741 238.177C145.632 243.152 145.91 243.43 150.019 249.672C154.407 256.315 162.379 269.077 163.214 270.777C163.986 272.353 167.014 276.555 170.352 280.726C173.627 284.836 182.588 294.477 185.4 296.887C186.512 297.845 187.501 298.772 187.656 298.957C188.057 299.545 188.428 298.463 188.953 294.817C189.232 292.839 190.035 288.142 190.684 284.373L191.889 277.513L194.917 271.796C196.555 268.675 198.007 266.173 198.131 266.234C198.656 266.574 212.437 291.727 218.772 303.901C220.193 306.621 221.368 308.907 221.429 308.938C221.46 309 221.738 309 222.016 308.938C222.418 308.876 222.109 308.011 220.224 304.21C218.03 299.761 212.005 288.421 209.687 284.342C208.668 282.519 208.637 282.426 209.378 283.013C209.811 283.353 213.395 286.659 217.32 290.398C224.427 297.103 230.73 302.913 235.211 306.93L237.559 309L248.374 308.938L259.22 308.845L252.978 303.129C242.256 293.272 242.627 293.704 239.537 288.142C235.643 281.128 233.357 277.266 232.121 275.566L231.07 274.052L231.75 271.055C232.121 269.417 232.677 267.161 232.986 266.049C233.295 264.937 234.006 262.434 234.531 260.487C236.663 252.515 236.509 252.886 238.486 251.65C246.366 246.582 254.678 241.947 255.883 241.947C257.273 241.947 264.288 239.938 266.049 239.011C266.543 238.764 267.718 237.25 268.861 235.458C269.942 233.758 271.426 231.441 272.167 230.329C272.878 229.216 273.465 228.166 273.465 228.011C273.465 227.857 273.589 227.733 273.743 227.733C273.898 227.733 274.145 227.424 274.268 227.022C274.392 226.651 274.794 225.91 275.164 225.415C276.308 223.901 281.808 214.013 286.134 205.67C288.266 201.561 288.822 200.139 289.409 197.327C289.471 197.018 289.657 194.732 289.842 192.229C289.996 189.757 290.244 186.543 290.367 185.091C290.893 179.374 290.058 156.292 289.286 155.334C289.131 155.118 287.71 152.399 286.134 149.247L283.26 143.53L283.631 136.578C284.064 128.297 284.064 123.878 283.693 122.92C283.013 121.252 281.777 116.709 281.623 115.35C281.53 114.546 281.128 111.302 280.696 108.15C280.263 104.998 279.769 101.197 279.614 99.6833C279.058 94.3067 277.698 87.4469 275.906 81.0197C274.979 77.6207 273.094 72.1514 272.353 70.6991C271.889 69.803 272.198 69.5249 273.619 69.5249C274.021 69.5249 274.732 69.4013 275.164 69.2159L275.968 68.9069L275.319 67.7636C274.361 66.095 271.858 64.1174 268.923 62.696C265.524 61.0274 263.206 60.6875 264.566 62.0471C264.782 62.2634 264.967 62.7269 264.967 63.0977C264.967 63.4376 265.215 63.9011 265.524 64.0865C265.987 64.3646 266.203 64.3028 266.667 63.7157C267.378 62.8505 267.748 62.8505 269.293 63.7775C270.313 64.3955 270.437 64.5809 270.004 64.7354C269.263 65.0135 269.263 66.6203 269.973 66.8984C270.344 67.022 270.746 66.8366 271.24 66.2495L271.951 65.4152L273.001 66.4349C273.681 67.0838 273.959 67.6091 273.867 68.0108C273.619 68.9378 273.156 69.0305 272.26 68.3816C271.58 67.8563 271.364 67.8254 271.055 68.1653C270.869 68.3816 270.684 68.6906 270.684 68.876C270.684 69.0305 270.499 69.2159 270.313 69.3086C270.035 69.4013 270.19 69.7412 270.777 70.3901C271.58 71.1935 271.642 71.4098 271.364 72.3677C271.086 73.3256 271.147 73.4801 271.92 74.0054C272.754 74.5616 272.754 74.5925 272.291 75.7358C271.889 76.8173 271.889 76.91 272.507 77.528C272.878 77.8988 273.372 78.1769 273.65 78.1769C274.083 78.1769 274.083 78.2696 273.774 78.6404C273.434 79.0421 273.31 79.0421 273.125 78.7331C272.971 78.5168 272.94 78.8876 273.063 79.5674C273.28 80.8961 273.774 81.5759 274.516 81.5759C274.794 81.5759 275.01 81.7304 275.01 81.8849C275.01 82.0703 274.855 82.163 274.67 82.1321C274.454 82.0703 274.176 82.5029 274.021 83.09C273.774 84.017 273.805 84.2333 274.392 84.6659C274.732 84.944 274.948 85.253 274.794 85.3766C274.485 85.6856 274.392 86.5508 274.701 86.3654C274.825 86.3036 274.948 86.5817 274.948 87.0452C274.948 87.5087 275.195 88.0958 275.535 88.343C275.999 88.7447 276.061 89.0846 275.906 90.0425C275.752 90.9695 275.844 91.3712 276.277 91.8038C276.926 92.4527 276.988 92.669 276.586 93.287C276.4 93.5651 276.524 94.0904 276.895 94.7393C277.204 95.3264 277.389 95.9753 277.297 96.2225C277.204 96.4697 277.266 96.7478 277.42 96.8405C277.606 96.9332 277.667 97.4276 277.606 97.922C277.513 98.54 277.606 98.849 277.945 99.0035C278.285 99.1271 278.378 99.4052 278.254 99.776C278.162 100.085 278.224 100.703 278.378 101.136C278.656 101.815 278.594 101.877 278.069 101.754C277.667 101.63 277.482 101.383 277.575 101.074C277.698 100.518 277.049 99.7142 276.709 100.054C276.617 100.178 276.679 99.8687 276.864 99.3743C277.235 98.3855 277.049 97.4894 276.555 97.7984C276.246 97.9838 276.215 97.8293 276.061 95.6663C276.03 94.9865 275.782 94.2758 275.566 94.1213C275.319 93.9359 275.164 93.596 275.226 93.3797C275.319 93.1943 275.164 93.0089 274.886 93.0089C274.485 93.0089 274.485 92.9162 274.855 92.1746C275.226 91.433 275.226 91.2785 274.855 91.0931C274.237 90.7223 273.65 88.7447 274.052 88.2812C274.268 87.9722 274.207 87.725 273.774 87.3542C273.434 87.0761 273.156 86.5817 273.156 86.3036C273.156 85.8092 273.094 85.8092 272.816 86.2109C272.569 86.5508 272.538 86.4581 272.692 85.7474C273.125 83.8934 273.125 83.7389 272.723 83.7389C272.136 83.7389 271.611 82.3175 271.796 81.2978C271.951 80.618 271.827 80.2163 271.302 79.6601C270.777 79.1039 270.684 78.7022 270.808 77.8679C271.024 76.5392 270.282 75.5504 269.417 76.0448C268.923 76.292 268.83 76.2302 268.83 75.7049C268.83 75.365 268.984 75.0869 269.139 75.0869C269.324 75.0869 269.602 74.747 269.819 74.3144C270.251 73.3565 269.788 72.7385 268.521 72.5531C267.718 72.4295 267.625 72.4913 267.656 73.3565C267.656 73.8818 267.872 74.5616 268.119 74.8397C268.366 75.1178 268.583 76.0139 268.583 76.8173C268.614 78.1151 268.706 78.3005 269.726 78.8876C270.653 79.4438 270.715 79.5674 270.19 79.7219C269.788 79.8146 269.572 80.1854 269.51 80.8343C269.417 81.8849 270.097 82.6883 270.838 82.3793C271.086 82.2866 271.302 82.3484 271.302 82.5029C271.302 82.6883 271.024 82.8119 270.684 82.8119C270.344 82.8119 270.066 82.9355 270.066 83.1209C270.066 83.2754 270.22 83.4299 270.375 83.4299C270.777 83.4299 270.777 84.5732 270.406 84.8204C270.251 84.9131 270.437 85.3457 270.869 85.7474C271.518 86.3963 271.611 86.7053 271.456 87.7559C271.364 88.4357 271.395 88.9919 271.549 88.9919C271.982 88.9919 272.198 90.506 271.796 90.6605C271.58 90.7532 271.58 90.815 271.858 90.815C272.044 90.8459 272.229 91.1549 272.229 91.5257C272.229 91.8965 272.476 92.4527 272.754 92.7617C273.218 93.287 273.218 93.3797 272.847 93.6269C272.476 93.8432 272.476 93.9977 272.785 94.3067C272.971 94.4921 273.156 94.9556 273.156 95.2955C273.156 95.6354 273.372 96.1298 273.65 96.4388C274.052 96.8714 274.052 97.1186 273.774 97.6439C273.465 98.2001 273.496 98.2928 273.805 98.1074C274.083 97.922 274.145 98.0456 274.021 98.5091C273.928 98.8799 274.052 99.3743 274.361 99.7142C274.639 100.023 274.886 100.858 274.917 101.599C274.917 102.31 275.103 103.113 275.319 103.36C275.535 103.608 275.721 104.473 275.721 105.276C275.752 106.172 275.968 106.914 276.246 107.161C276.648 107.532 276.648 107.532 276.246 107.347C275.844 107.13 275.844 107.192 276.215 107.625C276.586 108.088 276.555 108.15 275.968 108.15C275.443 108.15 275.319 107.965 275.35 107.285C275.443 105.956 275.35 105.616 274.979 105.863C274.732 105.987 274.701 105.832 274.855 105.369C275.01 104.905 274.979 104.751 274.732 104.875C274.237 105.214 273.99 104.287 274.392 103.546C274.608 103.113 274.608 102.897 274.392 102.897C274.237 102.897 274.083 102.557 274.083 102.124C274.083 101.723 273.867 101.259 273.589 101.105C273.218 100.919 273.125 100.579 273.249 100.116C273.341 99.7142 273.249 99.2507 273.001 98.9726C272.754 98.7563 272.631 98.3546 272.723 98.1074C272.847 97.8602 272.754 97.6439 272.569 97.6439C272.353 97.6439 272.26 97.2422 272.353 96.5315C272.445 95.759 272.353 95.3882 272.044 95.2646C271.796 95.1719 271.642 94.9247 271.704 94.7393C271.796 94.523 271.673 94.1213 271.456 93.8432C271.24 93.5651 271.147 92.978 271.24 92.5454C271.302 92.1128 271.24 91.7729 271.055 91.7729C270.869 91.7729 270.684 91.4639 270.622 91.0622C270.56 90.6296 270.344 90.4133 269.973 90.4133C269.448 90.4751 269.448 90.4442 269.911 89.9189C270.375 89.4245 270.375 89.2082 270.035 88.2503C269.819 87.6323 269.51 87.1379 269.355 87.1379C269.201 87.1379 269.139 86.7362 269.232 86.2418C269.355 85.6856 269.201 84.9749 268.83 84.2333C268.49 83.6462 268.274 82.8119 268.336 82.4411C268.459 81.5759 267.656 80.2472 267.13 80.4635C266.914 80.5253 266.574 80.4635 266.389 80.309C266.203 80.1545 266.111 80.1236 266.173 80.2163C266.265 80.309 266.173 80.8034 265.987 81.2978C265.709 82.1012 265.771 82.3175 266.543 83.0591C267.038 83.4917 267.563 83.8316 267.687 83.8007C267.841 83.7698 267.841 83.8934 267.748 84.0788C267.594 84.326 267.439 84.326 267.192 84.0788C266.636 83.5226 266.296 83.6771 266.667 84.326C266.821 84.6659 266.976 85.2221 266.976 85.5929C266.976 85.9637 267.192 86.489 267.47 86.7671C267.81 87.107 267.934 87.6014 267.81 88.4048C267.718 89.2082 267.81 89.7335 268.181 90.1352C268.49 90.4751 268.675 91.1858 268.645 92.0819C268.614 92.978 268.768 93.596 269.077 93.8123C269.324 93.9977 269.448 94.3376 269.386 94.5848C269.293 94.832 269.355 95.2646 269.479 95.5427C269.664 95.8517 269.633 96.1298 269.448 96.2534C269.263 96.377 269.355 96.7478 269.757 97.2422C270.097 97.6748 270.282 98.1692 270.19 98.3237C270.097 98.4782 270.19 98.7872 270.375 99.0344C270.591 99.2816 270.684 99.6833 270.591 99.9305C270.499 100.178 270.622 100.549 270.838 100.734C271.117 100.981 271.24 101.383 271.117 101.815C271.024 102.217 271.086 102.619 271.24 102.712C271.426 102.804 271.487 103.175 271.395 103.515C271.302 103.886 271.426 104.195 271.704 104.318C272.044 104.442 272.136 104.782 272.013 105.554C271.92 106.141 271.982 106.605 272.136 106.605C272.445 106.605 272.507 106.914 272.631 108.675C272.662 109.201 272.785 109.757 272.94 109.88C273.249 110.189 273.218 110.684 272.878 110.498C272.723 110.375 272.507 110.498 272.445 110.684C272.353 110.9 272.26 110.653 272.26 110.097C272.229 109.571 272.074 109.015 271.92 108.922C271.735 108.83 271.704 108.397 271.796 108.026C271.92 107.532 271.796 107.254 271.487 107.13C271.209 107.007 270.993 106.605 270.993 106.172C270.993 105.771 270.808 105.338 270.622 105.276C270.344 105.153 270.313 105.029 270.56 104.844C270.931 104.566 271.024 103.515 270.653 103.515C270.529 103.515 270.313 103.206 270.19 102.804C270.066 102.433 269.819 102.032 269.633 101.908C269.417 101.754 269.386 101.661 269.633 101.661C269.819 101.661 269.911 101.259 269.819 100.734C269.757 100.209 269.51 99.8069 269.263 99.8069C268.892 99.8069 268.892 99.6833 269.139 99.1889C269.417 98.6945 269.386 98.5709 268.954 98.5709C268.552 98.5709 268.49 98.3855 268.614 97.6748C268.737 97.1495 268.614 96.5624 268.336 96.1298C268.088 95.7899 267.965 95.4809 268.088 95.4809C268.181 95.4809 268.119 95.2955 267.903 95.0483C267.718 94.8011 267.563 94.3376 267.625 94.0286C267.687 93.3797 266.945 91.4639 266.605 91.4639C266.482 91.4639 266.482 91.0004 266.543 90.4442C266.667 89.7335 266.543 89.27 266.08 88.8065C265.74 88.4357 265.555 88.034 265.647 87.9413C265.771 87.8486 265.678 87.7559 265.493 87.7559C265.246 87.7559 265.246 87.5087 265.493 86.7671C265.771 86.0255 265.74 85.7474 265.493 85.6547C265.276 85.5929 265.122 85.3457 265.122 85.0985C265.122 84.8513 264.967 84.6659 264.782 84.6659C264.535 84.6659 264.504 84.2642 264.628 83.4299C264.751 82.6574 264.689 82.1939 264.504 82.1939C264.349 82.1939 264.195 81.9158 264.195 81.5759C264.195 81.1124 263.979 80.9579 263.422 80.9579C262.99 80.9579 262.65 80.8034 262.65 80.6489C262.65 80.4635 262.866 80.3399 263.113 80.3399C263.361 80.3399 263.577 80.2163 263.577 80.0618C263.577 79.9073 263.639 79.5674 263.731 79.3511C263.824 79.1039 263.639 78.6404 263.33 78.3314C262.557 77.4662 262.31 76.6628 262.619 76.0448C262.835 75.674 262.743 75.3032 262.279 74.7779C261.908 74.2835 261.63 74.129 261.538 74.3762C261.445 74.5925 261.198 74.6852 261.012 74.5925C260.796 74.5307 260.611 74.8397 260.58 75.3959C260.549 76.0139 260.672 76.4156 260.95 76.5392C261.198 76.6319 261.414 76.91 261.414 77.1572C261.414 77.5589 261.507 77.5589 261.877 77.2499C262.279 76.9409 262.341 76.9718 262.341 77.5589C262.341 78.0842 262.186 78.2078 261.785 78.1151C261.321 77.9915 261.259 78.1151 261.352 78.9185C261.414 79.4438 261.692 80.0309 261.939 80.2472C262.279 80.4944 262.372 80.9888 262.279 81.9467C262.186 82.9973 262.279 83.399 262.774 83.8316C263.237 84.2333 263.361 84.6968 263.299 85.6547C263.268 86.489 263.422 87.107 263.762 87.4778C264.195 87.9413 264.195 88.1267 263.886 88.5284C263.577 88.8992 263.577 88.9919 263.886 88.9919C264.164 88.9919 264.226 89.27 264.102 89.9189C263.948 90.5369 264.01 90.8459 264.288 90.8459C264.504 90.8459 264.844 91.124 265.06 91.4948C265.307 91.8656 265.338 92.051 265.153 91.9274C264.689 91.6802 265.091 94.3067 265.524 94.5848C265.678 94.7084 265.74 95.0792 265.647 95.45C265.555 95.8208 265.616 96.1916 265.802 96.2843C265.956 96.377 266.018 96.686 265.894 96.9332C265.802 97.2113 265.956 97.6748 266.234 97.9838C266.512 98.2928 266.667 98.8181 266.574 99.1889C266.482 99.5288 266.698 100.363 267.038 101.074C267.378 101.785 267.563 102.526 267.47 102.742C267.409 102.959 267.501 103.391 267.748 103.7C268.027 104.071 268.057 104.411 267.872 104.627C267.687 104.875 267.748 105.06 268.088 105.184C268.397 105.307 268.521 105.554 268.397 105.863C268.212 106.358 268.706 108.274 269.232 108.984C269.541 109.386 269.232 110.622 268.861 110.622C268.706 110.622 268.428 110.406 268.181 110.128C267.872 109.757 267.872 109.51 268.15 109.046C268.459 108.552 268.428 108.397 267.934 108.088C267.47 107.81 267.409 107.594 267.656 107.316C267.872 107.038 267.841 106.883 267.47 106.729C267.13 106.605 267.007 106.296 267.13 105.771C267.192 105.338 267.069 104.689 266.791 104.318C266.543 103.917 266.451 103.515 266.543 103.422C266.667 103.299 266.543 103.144 266.265 103.021C265.894 102.897 265.833 102.681 266.049 102.094C266.265 101.537 266.234 101.29 265.925 101.167C265.709 101.074 265.524 100.641 265.524 100.178C265.524 99.7451 265.369 99.3125 265.184 99.2507C264.967 99.1889 264.906 98.7872 265.029 98.231C265.122 97.7366 265.06 97.3349 264.906 97.3349C264.442 97.3349 263.855 95.2955 264.071 94.4303C264.164 93.9977 264.133 93.6269 264.01 93.6269C263.577 93.6269 262.866 91.8038 263.052 91.1549C263.144 90.815 263.021 90.4133 262.774 90.197C262.526 90.0116 262.341 89.6408 262.341 89.4245C262.341 89.1773 262.186 88.9919 262.001 88.9919C261.847 88.9919 261.785 88.8374 261.877 88.6829C261.97 88.4975 261.877 88.3739 261.661 88.3739C261.414 88.3739 261.445 88.2194 261.785 87.8795C262.248 87.416 262.248 87.2924 261.754 86.3963C261.476 85.871 261.136 85.3457 260.981 85.253C260.827 85.1294 260.796 84.7277 260.889 84.326C261.074 83.6462 260.734 82.6883 259.993 81.9776C259.684 81.6686 259.684 81.3287 259.931 80.5871C260.209 79.8455 260.178 79.5674 259.931 79.4747C259.714 79.4129 259.56 79.1966 259.56 78.9803C259.56 78.7331 259.189 78.5786 258.664 78.6095C257.83 78.6404 257.768 78.7331 257.83 79.6601C257.86 80.309 258.169 80.9579 258.726 81.4523C259.653 82.3175 259.807 82.6574 259.096 82.4102C258.849 82.2866 258.571 82.3484 258.478 82.5029C258.355 82.6883 258.417 82.8119 258.54 82.8119C258.695 82.8119 258.849 83.1827 258.88 83.6462C258.911 84.1406 259.096 84.5423 259.251 84.6041C259.714 84.7586 259.622 85.9019 259.189 85.9019C258.911 85.9328 258.942 86.0564 259.282 86.3036C259.529 86.5199 259.745 87.0452 259.714 87.5087C259.684 88.0649 259.838 88.3739 260.24 88.4975C260.765 88.6211 260.796 88.7447 260.487 89.3318C260.209 89.8571 260.209 90.0425 260.487 90.2279C260.703 90.3824 260.796 90.6914 260.703 90.9695C260.611 91.2167 260.703 91.6493 260.92 91.8656C261.167 92.1128 261.29 92.6381 261.198 93.1016C261.074 93.6269 261.167 93.9359 261.414 93.9359C261.63 93.9359 261.723 94.1522 261.599 94.4303C261.476 94.7084 261.568 95.141 261.785 95.4191C262.001 95.6663 262.186 96.2534 262.217 96.686C262.217 97.1186 262.341 97.7675 262.495 98.0765C262.712 98.54 262.65 98.6327 262.31 98.4473C262.063 98.3237 262.125 98.4164 262.465 98.6945C262.835 99.0035 263.083 99.6833 263.175 100.61C263.237 101.414 263.392 102.217 263.546 102.403C263.762 102.712 263.979 103.484 264.288 105.431C264.349 105.709 264.566 106.141 264.782 106.42C265.06 106.759 265.091 107.038 264.844 107.47C264.597 107.965 264.628 108.119 264.998 108.274C265.246 108.366 265.369 108.613 265.276 108.768C265.153 108.953 265.246 109.324 265.462 109.571C265.678 109.849 265.833 110.467 265.802 110.931C265.771 111.425 265.864 111.889 266.018 112.012C266.203 112.105 266.265 112.383 266.173 112.6C266.08 112.816 266.234 113.094 266.482 113.187C266.883 113.341 266.914 113.527 266.636 114.145C266.327 114.824 266.203 114.855 265.833 114.454C265.585 114.206 265.462 113.774 265.585 113.403C265.74 112.939 265.647 112.785 265.276 112.785C264.875 112.785 264.782 112.6 264.937 112.043C265.029 111.611 264.967 111.178 264.782 111.085C264.597 110.962 264.535 110.529 264.628 110.158C264.72 109.757 264.689 109.324 264.504 109.231C264.349 109.139 264.195 108.768 264.195 108.459C264.195 108.15 263.917 107.686 263.546 107.439C263.113 107.13 263.021 106.914 263.268 106.759C263.453 106.636 263.546 106.358 263.453 106.141C263.361 105.894 263.453 105.647 263.67 105.554C263.886 105.493 263.793 105.4 263.515 105.4C263.175 105.369 262.959 105.122 262.959 104.782C262.959 104.442 262.804 104.071 262.619 103.948C262.434 103.855 262.341 103.422 262.434 102.99C262.495 102.588 262.372 102.063 262.125 101.815C261.877 101.568 261.754 101.228 261.847 101.074C261.939 100.919 261.816 100.641 261.538 100.425C261.29 100.209 261.167 99.8069 261.259 99.5597C261.445 99.0653 260.796 96.995 260.363 96.686C260.209 96.5624 260.178 96.1916 260.271 95.8208C260.363 95.45 260.302 95.0792 260.147 94.9865C259.993 94.8938 259.869 94.4921 259.869 94.0904C259.869 93.6887 259.714 93.2561 259.56 93.1634C259.375 93.0398 259.251 92.669 259.282 92.2982C259.375 91.3403 258.571 89.579 258.139 89.7335C257.891 89.8262 257.953 89.5172 258.262 88.9301C258.664 88.0958 258.664 87.9104 258.293 87.6323C257.644 87.1379 257.119 85.7474 257.304 85.0367C257.397 84.6968 257.119 83.9243 256.686 83.2136C256.192 82.4411 256.006 81.854 256.161 81.545C256.47 80.9888 255.697 79.1039 255.172 79.1348C254.863 79.1348 254.863 79.1966 255.172 79.3202C255.759 79.5674 255.265 80.0309 254.523 79.9073C254.152 79.8764 253.998 79.8764 254.214 79.9382C254.461 80.0309 254.523 80.4017 254.431 80.927C254.276 81.6995 254.369 81.854 255.203 82.2248C256.192 82.6574 256.377 82.9664 255.852 83.2754C255.697 83.3681 255.543 83.3063 255.543 83.1209C255.543 82.9355 255.388 82.8737 255.203 82.9973C255.018 83.09 254.956 83.5226 255.079 84.017C255.203 84.4496 255.327 84.944 255.358 85.1294C255.388 85.2839 255.574 85.7165 255.759 86.0564C255.945 86.3963 256.068 87.1688 256.006 87.7559C255.945 88.5593 256.099 88.9919 256.594 89.3936C256.995 89.7644 257.119 90.0116 256.903 90.1043C256.501 90.2588 256.81 91.4948 257.582 93.0398C257.891 93.6578 257.891 93.9359 257.644 94.1831C257.366 94.4612 257.366 94.5539 257.644 94.5539C257.891 94.5539 257.984 94.832 257.891 95.2955C257.799 95.7281 257.953 96.2225 258.2 96.4388C258.448 96.6551 258.571 97.0568 258.448 97.4894C258.355 97.8911 258.417 98.2928 258.602 98.3855C258.787 98.5091 258.942 98.9417 258.942 99.3434C258.942 99.7451 259.066 100.147 259.22 100.27C259.375 100.363 259.467 100.765 259.375 101.197C259.313 101.599 259.375 102.032 259.56 102.124C259.745 102.248 259.776 102.464 259.684 102.65C259.56 102.835 259.653 103.082 259.9 103.206C260.147 103.36 260.271 103.917 260.24 104.566C260.178 105.184 260.271 105.678 260.425 105.678C260.765 105.678 261.445 107.841 261.229 108.212C261.136 108.366 261.29 108.83 261.568 109.293C261.847 109.726 261.939 109.973 261.754 109.88C261.259 109.54 261.352 110.189 261.877 110.622C262.156 110.838 262.279 111.271 262.156 111.703C262.063 112.105 262.248 112.97 262.619 113.712C263.175 114.855 263.206 115.102 262.835 115.628C262.403 116.246 262.403 116.246 262.032 115.566C261.847 115.195 261.723 114.608 261.816 114.299C261.908 113.928 261.847 113.774 261.661 113.897C261.445 114.052 261.383 113.805 261.507 113.218C261.599 112.661 261.507 112.229 261.229 112.012C261.012 111.858 260.765 111.24 260.734 110.684C260.703 110.158 260.549 109.695 260.425 109.695C260.302 109.695 260.271 109.479 260.363 109.231C260.487 108.984 260.332 108.706 260.085 108.583C259.776 108.459 259.622 107.965 259.622 106.852C259.622 105.771 259.467 105.153 259.158 104.905C258.849 104.689 258.726 104.287 258.849 103.886C258.942 103.484 258.88 103.206 258.664 103.206C258.478 103.206 258.324 102.866 258.324 102.464C258.324 102.032 258.077 101.476 257.799 101.197C257.428 100.827 257.366 100.518 257.582 100.178C257.891 99.6833 257.212 97.6439 256.717 97.6439C256.594 97.6439 256.563 97.2422 256.655 96.7478C256.779 96.2534 256.686 95.759 256.501 95.6663C256.315 95.5427 256.161 95.1719 256.161 94.832C256.161 94.523 256.006 94.2449 255.852 94.2449C255.667 94.2449 255.605 93.905 255.728 93.4724C255.852 93.0089 255.759 92.4836 255.543 92.2364C255.327 91.9583 255.234 91.6802 255.358 91.5566C255.45 91.4639 255.327 91.124 255.049 90.815C254.77 90.506 254.616 89.9807 254.709 89.6099C254.801 89.27 254.74 88.9919 254.554 88.9919C254.369 88.9919 254.307 88.7756 254.431 88.5284C254.523 88.2812 254.461 88.0649 254.276 88.0649C254.091 88.0649 254.029 87.8486 254.122 87.5705C254.245 87.2306 254.183 87.107 253.874 87.2306C253.534 87.3542 253.473 87.1997 253.565 86.6126C253.658 86.18 253.72 85.7474 253.751 85.6238C253.751 85.5311 253.596 84.9749 253.38 84.3878C253.04 83.5226 252.947 83.4299 252.7 83.8625C252.515 84.2024 252.206 84.326 251.773 84.1715C251.217 84.017 251.186 84.0788 251.371 85.0058C251.495 85.5929 251.804 86.3345 252.051 86.7053C252.268 87.0761 252.391 87.6014 252.268 87.8795C252.144 88.1576 252.237 88.3739 252.453 88.3739C252.669 88.3739 252.762 88.5593 252.669 88.8065C252.577 89.0228 252.7 89.5172 252.978 89.888C253.349 90.4133 253.349 90.6605 253.071 91.0004C252.824 91.3094 252.793 91.5875 252.978 91.8347C253.164 92.051 253.38 92.6072 253.504 93.0707C253.596 93.5651 253.843 93.9359 253.998 93.9359C254.152 93.9359 254.214 94.3376 254.122 94.832C253.998 95.3264 254.091 95.8208 254.276 95.9135C254.461 96.0371 254.554 96.2843 254.431 96.4388C254.338 96.6242 254.492 97.0568 254.832 97.3967C255.234 97.8602 255.296 98.0765 255.018 98.1692C254.801 98.2619 254.616 98.5091 254.616 98.7563C254.616 99.0344 254.77 99.1271 254.925 99.0344C255.11 98.9108 255.234 99.2507 255.234 99.776C255.234 100.301 255.388 100.734 255.574 100.734C255.759 100.734 255.852 101.043 255.821 101.414C255.759 101.815 255.852 102.31 255.976 102.557C256.192 102.866 256.13 102.928 255.821 102.773C255.574 102.65 255.636 102.742 255.976 103.021C256.285 103.268 256.439 103.639 256.315 103.793C256.223 103.978 256.346 104.349 256.624 104.627C256.995 105.029 257.026 105.214 256.717 105.585C256.439 105.925 256.439 106.08 256.717 106.265C256.933 106.389 257.119 106.852 257.15 107.316C257.181 107.779 257.335 108.15 257.49 108.15C257.644 108.15 257.706 108.552 257.613 109.046C257.49 109.695 257.551 110.004 257.891 110.128C258.139 110.22 258.262 110.467 258.169 110.653C258.046 110.807 258.2 111.271 258.54 111.611C258.942 112.074 259.004 112.291 258.726 112.383C258.169 112.6 258.231 113.619 258.818 113.836C259.066 113.928 259.189 114.175 259.096 114.33C258.973 114.515 259.035 114.855 259.251 115.102C259.436 115.319 259.529 115.968 259.436 116.493C259.344 117.142 259.436 117.513 259.745 117.636C259.993 117.729 260.085 117.945 259.993 118.1C259.869 118.285 259.962 118.532 260.178 118.656C260.425 118.81 260.487 119.181 260.363 119.707C260.24 120.17 260.023 120.448 259.869 120.355C259.684 120.232 259.622 120.016 259.714 119.861C259.838 119.707 259.776 119.583 259.622 119.583C259.344 119.583 258.818 117.853 258.911 117.296C258.942 117.142 258.726 116.771 258.448 116.462C258.169 116.153 258.015 115.69 258.108 115.442C258.231 115.164 258.139 114.886 257.984 114.763C257.799 114.67 257.706 114.299 257.799 113.99C257.891 113.619 257.737 113.248 257.335 112.97C256.872 112.63 256.779 112.414 257.026 111.982C257.335 111.425 257.304 111.302 256.346 109.417C255.976 108.644 255.914 108.274 256.192 107.965C256.47 107.625 256.408 107.501 256.037 107.347C255.728 107.223 255.605 106.945 255.697 106.605C255.79 106.265 255.697 105.987 255.388 105.894C255.141 105.771 254.925 105.369 254.956 104.998C254.987 103.855 254.74 102.619 254.369 102.186C254.183 101.97 253.936 101.074 253.813 100.209C253.689 99.2816 253.442 98.54 253.195 98.4473C252.886 98.3237 252.824 98.0147 252.947 97.5203C253.04 97.1186 252.978 96.686 252.793 96.5933C252.607 96.4697 252.453 96.0989 252.453 95.7899C252.453 95.4809 252.268 95.1719 252.082 95.1101C251.773 94.9865 251.773 94.8011 252.051 94.1831C252.36 93.5033 252.329 93.3488 251.928 93.1943C251.68 93.0707 251.526 92.7926 251.619 92.5763C251.711 92.3291 251.588 91.9583 251.341 91.742C251.001 91.4639 250.908 91.0622 251.032 90.4751C251.124 89.9189 251.093 89.6408 250.908 89.7644C250.723 89.8571 250.599 89.6408 250.599 89.2391C250.599 88.8374 250.321 88.343 249.981 88.1267C249.641 87.9104 249.363 87.5705 249.363 87.3542C249.363 87.107 249.456 87.107 249.641 87.416C249.857 87.7559 249.95 87.725 250.043 87.2615C250.166 86.5508 249.61 84.6659 249.301 84.6659C249.147 84.6659 249.054 84.2951 249.054 83.8007C249.054 82.2557 248.714 81.5141 248.096 81.6686C247.756 81.7613 247.416 81.6686 247.293 81.5141C247.2 81.3287 247.262 81.2669 247.447 81.3596C247.633 81.5141 247.694 81.3287 247.602 80.8961C247.478 80.3399 247.509 80.2781 247.787 80.6489C248.003 80.9888 248.065 80.7107 247.972 79.5983C247.88 78.764 247.787 78.0224 247.725 77.9915C247.694 77.9606 247.169 78.0224 246.582 78.1769C245.995 78.3005 245.686 78.4241 245.902 78.455C246.088 78.4859 246.273 78.7949 246.273 79.1966C246.273 79.5983 246.427 80.0618 246.644 80.2781C246.829 80.4635 247.045 81.0815 247.076 81.6377C247.169 82.5338 247.571 84.2333 248.034 85.5929C248.127 85.8401 248.22 86.3963 248.251 86.798C248.281 87.1997 248.529 87.6941 248.838 87.9104C249.363 88.2812 249.579 88.8683 249.085 88.5593C248.93 88.4666 248.714 88.5902 248.621 88.8683C248.374 89.5481 248.374 89.6717 248.745 89.4554C248.93 89.3318 249.054 89.6099 249.054 90.0425C249.054 90.4751 249.208 90.8459 249.394 90.8459C249.548 90.8459 249.641 90.9695 249.517 91.124C249.425 91.2785 249.517 91.5257 249.703 91.6493C249.95 91.8038 249.95 91.9274 249.672 92.0819C249.394 92.2673 249.394 92.4527 249.672 93.0089C249.857 93.3797 249.95 93.8741 249.857 94.1213C249.765 94.3685 249.888 94.5539 250.166 94.5539C250.475 94.5539 250.568 94.7702 250.414 95.2955C250.321 95.759 250.414 96.3152 250.692 96.7478C250.97 97.1186 251.093 97.613 251.001 97.8293C250.908 98.0765 251.001 98.2619 251.217 98.2619C251.464 98.2619 251.495 98.5709 251.371 99.1889C251.248 99.776 251.279 100.116 251.495 100.116C251.711 100.116 251.773 100.425 251.65 100.858C251.526 101.352 251.619 101.63 251.989 101.754C252.329 101.908 252.422 102.186 252.268 102.742C252.175 103.175 252.237 103.7 252.453 103.978C252.638 104.226 252.731 104.566 252.607 104.751C252.515 104.905 252.546 105.06 252.731 105.06C253.195 105.06 253.473 106.265 253.102 106.729C252.855 107.038 252.886 107.254 253.225 107.532C253.504 107.748 253.658 108.119 253.565 108.366C253.473 108.583 253.596 108.768 253.813 108.768C254.122 108.768 254.214 109.046 254.122 109.664C254.029 110.22 254.214 111.116 254.585 111.889C255.079 112.878 255.141 113.31 254.863 113.619C254.616 113.928 254.678 114.237 255.265 114.855C255.667 115.288 255.821 115.566 255.636 115.442C255.388 115.288 255.234 115.411 255.234 115.72C255.234 116.06 255.388 116.184 255.667 116.091C256.006 115.968 256.068 116.122 255.976 116.709C255.883 117.142 256.037 117.945 256.285 118.471C256.841 119.676 256.903 120.17 256.624 121.035C256.408 121.684 256.408 121.684 255.821 121.097C255.419 120.695 255.296 120.263 255.419 119.737C255.543 119.243 255.481 118.965 255.234 118.965C255.049 118.965 254.956 118.718 255.079 118.378C255.172 118.069 255.049 117.667 254.832 117.482C254.585 117.265 254.431 116.802 254.461 116.431C254.492 116.029 254.4 115.535 254.214 115.319C254.06 115.102 253.998 114.855 254.122 114.732C254.214 114.639 254.091 114.299 253.813 113.99C253.534 113.681 253.38 113.218 253.473 112.97C253.596 112.692 253.534 112.414 253.38 112.321C253.195 112.198 253.071 111.734 253.071 111.24C253.071 110.746 252.855 110.313 252.577 110.189C252.237 110.066 252.175 109.88 252.391 109.51C252.577 109.17 252.546 108.737 252.268 108.212C252.051 107.81 251.959 107.254 252.051 107.038C252.144 106.79 252.02 106.605 251.711 106.605C251.341 106.605 251.248 106.42 251.402 105.832C251.526 105.338 251.464 105.06 251.217 105.06C251.001 105.06 250.908 104.813 251.001 104.473C251.093 104.133 250.97 103.608 250.784 103.299C250.568 102.99 250.444 102.433 250.475 102.032C250.506 101.661 250.383 101.259 250.259 101.167C250.105 101.074 249.981 100.703 249.981 100.301C249.981 99.9305 249.826 99.467 249.641 99.2816C249.425 99.0653 249.239 98.4473 249.178 97.8293C249.116 97.2422 248.869 96.4079 248.59 95.9753C248.312 95.5427 248.158 95.0792 248.251 94.9247C248.467 94.5848 247.787 92.6999 247.416 92.6999C247.293 92.6999 247.2 92.2364 247.231 91.6802C247.324 90.5678 246.953 89.2391 246.52 88.961C246.335 88.8374 246.149 88.0958 246.088 87.2615C246.026 86.2727 245.779 85.5929 245.408 85.2839C244.913 84.8513 244.882 84.7277 245.253 84.3878C245.593 84.0788 245.624 83.8934 245.377 83.6462C245.191 83.4608 245.037 83.0591 245.037 82.781C245.037 82.5029 244.821 82.1939 244.573 82.0703C244.234 81.9467 244.11 81.5141 244.172 80.4944C244.172 79.7219 244.048 78.9185 243.863 78.7331C243.646 78.5168 243.492 78.1151 243.492 77.8061C243.492 77.1572 241.638 69.494 240.68 66.2804C240.34 65.0753 239.938 63.6848 239.784 63.1904C239.104 60.7493 237.281 56.1143 236.941 55.8671C236.663 55.7126 236.818 55.6508 237.312 55.6817C237.745 55.6817 238.579 55.5581 239.228 55.4036C240.031 55.1564 240.464 55.1564 240.742 55.4345C241.02 55.6817 241.082 55.6508 240.927 55.2491C240.773 54.8474 240.958 54.662 241.731 54.5384C242.287 54.4457 243.214 54.3839 243.801 54.3839C245.47 54.4457 248.251 53.735 248.683 53.0861C249.363 52.1591 250.197 51.8501 250.908 52.2827C251.402 52.6226 251.588 52.5917 251.959 52.0664C252.175 51.7574 252.329 51.2939 252.237 51.1085C252.144 50.8922 252.546 50.4905 253.102 50.2124C254.06 49.6871 254.091 49.6871 253.874 50.336C253.287 52.3445 253.287 52.4372 254.091 51.4793C255.296 50.0579 255.697 49.1618 255.327 48.791C254.894 48.3584 252.144 49.718 248.899 51.9119C246.706 53.3642 246.675 53.3642 243.461 53.6114L240.217 53.8277L238.208 51.8192C236.23 49.8725 233.944 48.5129 230.452 47.2769L228.938 46.7516L230.823 46.0718C233.264 45.1757 234.5 44.1251 234.037 43.3526C233.202 41.993 228.073 41.5913 222.634 42.4874C221.12 42.7346 219.853 42.8891 219.823 42.8582C219.792 42.8273 221.398 41.5604 223.407 40.0772C226.93 37.4507 227.64 36.74 227.239 36.122C226.806 35.4113 222.14 36.4928 218.339 38.1614C217.907 38.3468 217.999 38.0996 218.741 37.0799C219.266 36.3383 219.699 35.504 219.699 35.1641C219.699 34.1444 218.339 34.5461 214.879 36.6473V36.6473ZM151.997 50.1815C151.935 50.2433 149.71 51.1703 147.084 52.2518C141.46 54.5384 131.603 59.4824 127.37 62.1398C124.156 64.1483 119.954 67.1765 118.007 68.876C116.833 69.8957 116.771 69.8957 116.184 69.3704C114.763 68.1035 115.257 67.5782 121.591 63.7466C127.864 59.915 136.547 55.7435 144.272 52.8698C145.57 52.3754 147.733 51.5411 149.092 51.0467C151.41 50.1506 152.306 49.9034 151.997 50.1815V50.1815ZM233.357 75.7049C238.27 85.871 238.455 86.2727 239.259 88.0649C239.691 88.9919 240.464 90.6914 240.989 91.8656C241.514 93.0089 241.947 94.0595 241.947 94.1831C241.947 94.3376 242.163 94.8938 242.441 95.45C242.719 95.9753 242.967 96.5933 242.998 96.8096C243.09 97.1495 243.183 97.4894 243.708 98.7872C243.801 99.0962 243.925 99.4052 243.955 99.4979C243.986 99.5906 244.079 99.8687 244.203 100.116C244.295 100.363 245.006 102.403 245.748 104.658C246.829 107.934 246.984 108.644 246.551 108.366C246.242 108.181 246.088 107.903 246.18 107.717C246.273 107.563 246.242 107.532 246.057 107.625C245.902 107.717 245.191 107.532 244.512 107.192C242.441 106.172 240.649 105.956 237.466 106.327C235.767 106.543 234.562 106.976 231.843 108.366C229.927 109.324 228.073 110.406 227.733 110.776C227.393 111.147 226.59 112.847 225.941 114.577C225.261 116.308 224.643 117.853 224.488 117.976C224.179 118.285 224.55 117.111 225.724 114.083C226.281 112.692 226.651 111.549 226.528 111.549C226.435 111.549 225.477 112.229 224.427 113.094C223.252 114.052 222.48 114.484 222.387 114.237C222.295 113.99 222.078 114.021 221.615 114.423C220.873 115.102 220.286 117.327 220.162 119.892C220.101 121.406 220.162 121.684 220.595 121.591C220.873 121.53 223.191 120.448 225.786 119.15C232.492 115.813 236.91 113.99 238.764 113.805C240.309 113.619 240.927 113.743 245.284 114.886L247.262 115.411L246.984 117.883C246.582 121.808 246.675 130.522 247.107 131.078C247.324 131.325 248.251 133.055 249.208 134.909C250.135 136.763 251.526 139.235 252.268 140.44L253.627 142.603L253.813 150.637C254.029 159.413 254.06 174.832 253.843 177.057C253.782 177.829 253.627 179.838 253.534 181.537C253.225 187.223 253.102 187.841 251.897 190.097C249.641 194.33 249.363 194.824 249.023 195.288C248.652 195.844 247.231 198.471 246.088 200.695C245.655 201.53 245.006 202.797 244.604 203.476C242.565 206.999 241.638 208.637 241.638 208.822C241.638 208.915 241.453 209.224 241.205 209.471C240.958 209.749 240.402 210.738 239.908 211.665C239.444 212.592 238.95 213.426 238.857 213.519C238.733 213.612 238.424 214.137 238.146 214.662C237.868 215.218 237.374 216.145 237.096 216.671C236.818 217.227 236.509 217.752 236.385 217.845C236.169 218.03 234.222 221.182 234.222 221.398C234.222 221.46 233.604 222.418 232.831 223.531C232.059 224.674 231.441 225.694 231.441 225.817C231.441 227.424 222.511 229.865 212.067 231.132L206.814 231.75L199.12 230.081C187.254 227.486 184.288 226.682 175.079 223.407C172.329 222.449 165.809 219.637 163.152 218.308C162.349 217.907 160.958 216.671 159.907 215.497C157.126 212.314 152.306 207.215 151.781 206.937C151.008 206.443 151.966 207.864 154.098 210.398C156.694 213.395 162.287 219.081 162.658 219.081C162.812 219.081 163.183 219.297 163.461 219.544C164.203 220.193 171.31 223.376 174.894 224.674C177.026 225.415 178.756 226.342 181.383 228.135C183.33 229.463 188.243 232.801 192.291 235.52C200.51 241.02 200.016 240.402 198.718 243.337C198.131 244.635 197.204 247.324 197.018 248.312C196.957 248.621 196.74 249.301 196.524 249.826C196.339 250.321 196.184 250.815 196.184 250.908C196.184 251.001 196.06 251.619 195.875 252.298C195.69 252.978 195.473 253.751 195.412 253.998C195.35 254.245 195.103 255.234 194.824 256.161C194.577 257.088 194.268 258.324 194.206 258.911C194.114 259.467 193.99 260.023 193.928 260.147C193.836 260.271 193.712 261.012 193.619 261.785C193.527 262.588 193.279 263.608 193.094 264.102C192.909 264.566 192.785 264.998 192.785 265.06C192.816 265.091 192.754 265.431 192.661 265.833C192.6 266.203 192.445 267.007 192.322 267.594C192.229 268.181 192.013 269.293 191.889 270.066C191.734 270.838 191.456 272.229 191.302 273.156C190.807 275.937 190.653 276.679 190.468 277.482C190.344 277.915 190.22 278.656 190.159 279.181C190.097 279.676 189.942 280.448 189.85 280.881C189.726 281.314 189.602 281.932 189.571 282.271C189.51 282.611 189.324 283.847 189.108 285.022C188.583 288.39 188.181 291.634 187.996 294.322C187.903 295.682 187.779 297.011 187.687 297.289C187.563 297.752 184.102 294.446 178.386 288.297C172.885 282.395 165.717 273.681 164.697 271.611C161.514 265.184 149.278 246.273 146.373 243.245C143.716 240.464 137.072 235.458 131.17 231.75C124.063 227.269 111.178 219.699 110.715 219.699C110.529 219.699 109.849 219.483 109.231 219.205L108.057 218.71L110.962 217.103C116.153 214.23 117.389 213.272 118.347 211.387C120.881 206.319 123.878 194.33 124.867 185.153C125.238 181.507 125.299 181.414 126.814 182.001C128.729 182.712 131.109 181.074 132.654 177.953L133.426 176.439L134.075 178.571C134.848 181.167 136.64 185.029 136.825 184.535C136.887 184.318 136.3 182.403 135.527 180.301C134.755 178.169 134.106 176.068 134.106 175.636C134.106 174.4 133.519 174.863 131.727 177.397C128.915 181.352 128.111 181.692 124.99 180.332C120.077 178.138 114.33 172.824 110.158 166.551C106.389 160.896 100.888 148.536 100.95 145.848C101.012 143.252 103.577 137.258 106.234 133.488C108.119 130.831 110.9 127.926 111.549 127.926C112.074 127.926 116.246 131.016 120.201 134.353C121.313 135.28 123.754 137.659 125.67 139.606C128.977 142.974 129.162 143.283 130.398 146.281C134.044 155.056 136.145 159.598 137.412 161.267C138.679 162.967 142.882 167.169 143.314 167.169C143.839 167.169 143.778 165.871 143.067 160.68C142.727 158.208 142.233 154.253 141.985 151.873C141.738 149.494 141.398 146.497 141.244 145.23C141.089 143.963 140.966 141.46 140.935 139.668C140.935 137.876 140.842 134.817 140.749 132.87C140.502 128.698 140.379 129.007 144.921 122.055C149.556 114.917 154.191 107.13 154.191 106.481C154.16 105.74 153.048 103.082 148.505 92.9162L145.199 85.562L148.536 79.9073L151.873 74.2526L167.323 74.3453C175.821 74.4071 187.532 74.5307 193.341 74.6234C200.016 74.7161 204.125 74.6852 204.465 74.4689C205.361 74.0054 216.424 69.8648 220.595 68.4434L224.427 67.1765L227.331 68.258L230.267 69.3395L233.357 75.7049V75.7049ZM113.836 69.1232C114.608 71.8733 114.701 73.2329 114.268 74.2217C114.021 74.7779 113.557 76.4774 113.248 78.0224C112.939 79.5365 112.63 80.8961 112.507 81.0197C112.291 81.2669 110.56 79.7528 109.819 78.6713C108.861 77.1572 109.911 72.584 111.858 69.8648C112.847 68.5052 113.557 68.258 113.836 69.1232ZM108.15 80.8034C108.861 81.9158 109.633 82.8119 109.849 82.8119C110.097 82.8119 110.807 83.8316 111.487 85.0367C112.692 87.2615 112.723 87.3542 112.878 91.3094C113.279 100.456 115.504 118.069 117.049 124.156L117.914 127.648L117.049 127.462C116.431 127.308 115.906 127.462 115.226 127.957C114.423 128.513 114.206 128.544 113.866 128.204C112.816 127.153 110.931 115.257 108.922 97.1804C108.49 93.2561 108.057 89.7026 107.965 89.2391C107.872 88.8065 107.81 87.8486 107.779 87.107C107.779 86.3963 107.501 85.2221 107.192 84.4805C106.512 82.9973 106.049 78.7949 106.543 78.7949C106.698 78.7949 107.439 79.691 108.15 80.8034ZM111.178 82.3484C111.085 82.4411 110.9 82.2866 110.807 81.9776C110.622 81.545 110.653 81.5141 110.962 81.7922C111.178 82.0085 111.271 82.2557 111.178 82.3484ZM246.118 92.6999C246.149 93.0398 246.057 93.3179 245.933 93.3179C245.655 93.3179 245.346 92.1746 245.593 91.9583C245.84 91.6802 246.088 92.0201 246.118 92.6999ZM246.335 94.5848C246.273 94.8011 246.489 95.1719 246.798 95.3882C247.231 95.7281 247.262 95.9135 246.984 96.377C246.675 96.8714 246.736 97.2113 247.2 98.231C247.54 98.9108 247.818 99.8687 247.818 100.394C247.818 100.888 247.942 101.383 248.127 101.506C248.281 101.599 248.312 101.908 248.22 102.186C248.096 102.495 248.158 102.619 248.343 102.495C248.807 102.186 249.023 102.928 248.683 103.608C248.498 103.978 248.56 104.349 248.869 104.782C249.116 105.153 249.239 105.647 249.147 105.863C249.054 106.111 249.147 106.296 249.332 106.296C249.765 106.296 249.796 107.439 249.363 107.686C249.208 107.779 249.332 108.119 249.672 108.459C250.012 108.799 250.29 109.293 250.29 109.54C250.29 109.788 250.444 110.004 250.599 110.004C250.815 110.004 250.815 110.189 250.599 110.591C250.383 111.055 250.444 111.549 250.908 112.63C251.279 113.496 251.464 114.361 251.341 114.824C251.217 115.288 251.279 115.566 251.526 115.566C251.742 115.566 251.835 115.751 251.742 115.999C251.65 116.246 251.835 116.709 252.175 117.049C252.515 117.42 252.638 117.76 252.453 117.883C252.051 118.131 252.051 119.274 252.453 119.274C252.638 119.274 252.762 119.552 252.762 119.892C252.762 120.232 252.916 120.51 253.071 120.51C253.627 120.51 253.411 121.715 252.793 122.055C252.02 122.457 251.835 122.148 251.65 120.263C251.588 119.459 251.31 118.656 251.062 118.471C250.506 118.069 250.444 117.42 250.97 117.42C251.248 117.42 251.248 117.327 250.97 117.049C250.753 116.833 250.599 116.369 250.599 116.029C250.599 115.659 250.321 115.041 249.981 114.639C249.517 114.114 249.456 113.836 249.703 113.496C249.919 113.248 249.95 113.094 249.734 113.094C249.579 113.094 249.332 112.167 249.208 110.993C249.116 109.849 248.529 107.254 247.911 105.214C247.293 103.175 246.767 101.012 246.675 100.425C246.613 99.8378 246.397 98.1074 246.18 96.6242C245.902 94.8011 245.871 93.9668 246.088 94.0595C246.273 94.1213 246.397 94.3685 246.335 94.5848V94.5848ZM278.934 102.773C279.151 103.391 278.687 103.886 278.162 103.546C277.729 103.299 277.976 102.279 278.44 102.279C278.594 102.279 278.811 102.495 278.934 102.773ZM276.246 109.077C276.246 109.231 276.091 109.386 275.906 109.386C275.752 109.386 275.69 109.231 275.782 109.077C275.875 108.892 276.03 108.768 276.122 108.768C276.184 108.768 276.246 108.892 276.246 109.077ZM269.572 111.116C269.046 111.333 269.417 112.476 270.004 112.476C270.375 112.476 270.406 112.569 270.159 112.816C269.973 113.001 269.85 113.341 269.881 113.527C269.942 113.712 269.911 113.774 269.85 113.619C269.757 113.496 269.541 113.403 269.324 113.403C269.077 113.403 268.984 113.094 269.077 112.476C269.17 111.889 269.077 111.549 268.861 111.549C268.645 111.549 268.583 111.394 268.675 111.24C268.768 111.055 269.108 110.931 269.386 110.962C269.664 110.962 269.757 111.055 269.572 111.116V111.116ZM273.341 112.136C273.341 112.476 273.218 112.661 273.094 112.6C272.971 112.507 272.847 112.229 272.847 111.982C272.847 111.734 272.971 111.549 273.094 111.549C273.218 111.549 273.341 111.827 273.341 112.136ZM266.512 115.844C266.605 115.999 266.574 116.215 266.42 116.308C266.265 116.4 266.142 116.277 266.142 116.029C266.142 115.504 266.234 115.442 266.512 115.844V115.844ZM271.147 116.493C271.24 116.678 271.117 116.709 270.869 116.617C270.313 116.4 270.22 116.184 270.653 116.184C270.838 116.184 271.055 116.308 271.147 116.493ZM263.392 117.265C263.299 117.853 263.392 118.038 263.793 118.069C264.133 118.069 264.195 118.162 263.948 118.254C263.762 118.316 263.639 118.532 263.762 118.687C263.855 118.841 263.793 118.965 263.608 118.965C263.453 118.965 263.237 118.532 263.113 118.038C262.99 117.513 262.774 117.111 262.619 117.111C262.465 117.111 262.341 116.956 262.341 116.802C262.341 116.617 262.619 116.493 262.928 116.493C263.422 116.493 263.515 116.647 263.392 117.265V117.265ZM249.641 122.179C249.517 122.858 249.517 123.507 249.641 123.6C249.734 123.693 250.105 124.156 250.414 124.651C250.815 125.269 250.877 125.608 250.63 125.856C250.166 126.319 250.197 127.215 250.692 127.524C251.371 127.926 251.588 129.347 251.062 129.78C250.568 130.182 250.537 130.12 250.537 128.791C250.506 128.266 250.383 128.019 250.135 128.111C249.857 128.235 249.796 128.019 249.888 127.493C250.012 126.968 249.857 126.659 249.394 126.412C248.807 126.072 248.745 125.794 248.745 123.136C248.745 120.355 248.776 120.201 249.301 120.541C249.796 120.85 249.857 121.128 249.641 122.179V122.179ZM264.102 120.695C264.01 120.788 263.731 120.819 263.515 120.726C263.268 120.634 263.361 120.541 263.701 120.541C264.04 120.51 264.226 120.603 264.102 120.695ZM261.043 122.395C261.383 122.951 261.383 123.106 261.043 123.415C260.827 123.6 260.734 123.631 260.858 123.476C260.981 123.353 260.889 123.013 260.641 122.766C260.394 122.518 260.178 122.179 260.178 122.024C260.178 121.53 260.641 121.715 261.043 122.395V122.395ZM257.242 122.364C257.15 122.518 257.15 122.827 257.273 123.044C257.644 123.6 257.675 125.485 257.335 125.269C257.181 125.176 257.119 124.898 257.212 124.681C257.304 124.434 257.15 124.094 256.933 123.909C256.686 123.693 256.532 123.415 256.624 123.291C256.717 123.136 256.655 122.951 256.47 122.827C255.945 122.488 256.13 122.055 256.81 122.055C257.15 122.055 257.335 122.179 257.242 122.364V122.364ZM253.874 124.125C253.782 124.372 253.813 124.465 253.967 124.372C254.461 124.063 254.616 124.743 254.152 125.145C253.905 125.361 253.782 125.67 253.905 125.856C253.998 126.041 253.751 125.917 253.287 125.578C252.577 125.052 252.546 124.96 252.978 124.589C253.256 124.403 253.349 124.218 253.164 124.218C252.7 124.218 252.422 123.415 252.669 122.766C252.855 122.333 252.947 122.364 253.442 122.982C253.751 123.384 253.936 123.909 253.874 124.125V124.125ZM261.538 124.774C261.63 124.929 261.507 125.052 261.259 125.052C261.012 125.052 260.889 124.929 260.981 124.774C261.074 124.651 261.198 124.527 261.259 124.527C261.321 124.527 261.445 124.651 261.538 124.774ZM254.461 126.999C254.369 127.153 254.461 127.37 254.647 127.493C254.894 127.617 254.863 127.771 254.585 127.957C254.276 128.142 254.245 128.235 254.554 128.235C254.74 128.235 254.925 128.359 254.925 128.482C254.925 128.637 254.74 128.76 254.492 128.76C254.214 128.76 254.091 128.513 254.183 128.05C254.276 127.617 254.122 127.308 253.782 127.184C253.318 126.999 253.318 126.906 253.689 126.69C254.183 126.381 254.709 126.597 254.461 126.999V126.999ZM251.341 131.387C251.186 131.634 251.279 131.665 251.619 131.541C251.897 131.449 252.206 131.479 252.268 131.603C252.391 131.819 251.402 131.85 250.97 131.665C250.815 131.603 251.217 131.016 251.402 131.016C251.495 131.016 251.464 131.17 251.341 131.387V131.387Z" fill="black" />
    <path d="M178.757 112.167C173.226 112.785 170.599 113.588 167.447 115.628C164.574 117.451 161.391 120.139 160.186 121.684C158.61 123.754 158.703 123.878 161.7 123.414C174.245 121.53 192.94 120.942 197.451 122.333C197.884 122.457 199.058 122.549 200.078 122.549C201.654 122.518 201.932 122.426 201.839 121.962C201.777 121.684 201.901 121.437 202.055 121.437C202.581 121.437 203.168 118.996 202.766 118.594C202.488 118.316 202.302 118.532 201.932 119.397C201.314 120.85 201.066 120.726 201.53 119.212C201.932 117.883 201.499 115.72 200.85 115.72C200.479 115.72 200.418 116.06 200.479 117.327C200.603 118.996 200.356 120.201 199.954 120.201C199.8 120.201 199.738 119.892 199.83 119.49C199.892 119.119 199.676 117.976 199.367 116.956C198.842 115.164 198.749 115.102 197.729 115.041C197.142 115.041 196.061 114.762 195.288 114.484C194.516 114.206 193.28 113.866 192.507 113.712C191.735 113.557 190.004 113.156 188.645 112.785C185.678 112.012 182.125 111.796 178.757 112.167V112.167ZM195.721 119.058C196.401 120.232 196.153 119.985 194.516 117.883C192.785 115.628 192.569 115.226 193.959 116.74C194.608 117.451 195.412 118.501 195.721 119.058V119.058ZM218.958 117.327C218.679 119.119 218.741 121.993 219.081 122.209C219.452 122.426 219.606 121.653 219.854 118.563C220.039 116.586 219.977 116.184 219.606 116.184C219.328 116.184 219.081 116.616 218.958 117.327ZM239.321 123.6C232.337 124.929 231.503 125.207 229.216 126.659C227.517 127.71 227.362 127.926 226.466 130.243C225.076 133.859 224.489 137.412 225.323 137.134C225.539 137.041 225.786 136.671 225.879 136.238C226.034 135.62 226.095 135.589 226.281 136.022C226.559 136.763 227.64 136.732 229.494 135.929C234.377 133.797 240.927 131.881 244.357 131.541C245.068 131.448 245.748 131.325 245.841 131.232C246.18 130.892 244.574 128.358 242.967 126.659C242.04 125.701 241.422 124.805 241.576 124.712C241.762 124.62 242.38 124.465 242.998 124.372C244.574 124.187 245.068 123.816 244.11 123.569C243.121 123.291 240.897 123.291 239.321 123.6V123.6ZM239.537 126.35C241.515 127.493 244.388 129.811 244.419 130.305C244.419 130.521 243.708 130.738 242.658 130.861C241.669 130.985 239.475 131.51 237.776 132.036C236.076 132.561 234.5 133.055 234.315 133.117C234.037 133.179 234.037 132.932 234.377 132.128C235.149 130.305 235.026 130.089 233.481 130.274C231.009 130.614 231.348 129.224 233.975 128.235C234.871 127.926 235.335 127.555 235.458 127.03C235.582 126.412 236.849 125.577 237.714 125.485C237.837 125.454 238.672 125.856 239.537 126.35V126.35ZM182.465 129.471C174.801 131.047 167.169 133.55 167.169 134.477C167.169 134.847 167.571 134.724 169.796 133.859C171.866 133.055 173.442 132.561 173.565 132.684C173.627 132.746 172.762 133.21 171.681 133.766C170.506 134.322 168.714 135.651 167.324 136.949C165.099 139.019 164.419 140.008 165.995 138.926C166.366 138.648 167.293 138.432 168.065 138.432C168.838 138.432 171.032 138.277 173.009 138.061C175.728 137.783 178.2 137.814 183.67 138.092C187.594 138.308 191.426 138.586 192.198 138.741C193.527 138.988 194.021 138.926 193.681 138.555C193.249 138.154 189.603 137.536 186.265 137.319L182.65 137.103L183.083 136.238C183.793 134.878 183.67 134.631 182.496 134.847C181.229 135.095 180.456 134.817 180.456 134.137C180.456 133.488 181.569 132.839 183.144 132.592C184.041 132.437 184.35 132.252 184.411 131.727C184.473 131.232 184.844 130.954 185.678 130.707C188.583 129.934 188.49 129.934 191.117 131.819C194.268 134.044 197.791 137.072 198.378 137.999C198.811 138.741 199.305 138.988 199.305 138.494C199.305 137.412 193.403 130.614 192.105 130.212C191.549 130.027 191.611 129.965 192.538 129.564C193.094 129.316 193.929 129.162 194.361 129.193C195.566 129.255 195.783 129.162 195.288 128.853C195.041 128.698 193.032 128.575 190.808 128.575C187.625 128.575 185.895 128.76 182.465 129.471V129.471ZM171.155 136.671C171.65 137.289 171.248 137.505 169.672 137.505H168.251L169.178 136.887C170.259 136.176 170.692 136.114 171.155 136.671ZM110.313 139.143C109.015 140.224 107.223 142.171 106.234 143.53C104.689 145.693 104.442 146.188 104.442 147.455C104.442 149.123 104.906 152.862 105.524 156.107C105.864 157.868 106.42 157.59 106.173 155.798C106.049 154.994 105.833 152.893 105.647 151.101C105.493 149.309 105.276 147.578 105.215 147.207C105.122 146.868 105.246 146.342 105.462 146.033C105.802 145.539 105.864 145.57 105.925 146.25C105.956 146.651 106.111 147.331 106.265 147.733C106.482 148.289 106.512 148.104 106.389 146.929C106.265 145.508 106.327 145.292 107.223 144.303C107.779 143.716 108.057 143.469 107.841 143.747C107.656 144.025 107.563 144.426 107.687 144.612C107.81 144.797 107.656 145.23 107.347 145.57C106.852 146.095 106.852 146.157 107.316 146.157C107.625 146.157 107.841 146.002 107.841 145.817C107.841 145.632 108.057 145.724 108.336 145.971C108.923 146.589 109.046 146.589 109.788 145.91C110.128 145.632 110.344 145.539 110.22 145.724C110.004 146.095 116.988 149.061 117.451 148.783C117.791 148.567 117.42 149.587 116.555 151.317C115.628 153.14 114.33 157.25 114.33 158.331C114.33 159.567 116.431 163.924 118.193 166.396C118.934 167.416 120.294 168.992 121.221 169.919C122.642 171.279 123.044 171.526 123.631 171.34C124.991 170.908 131.912 167.478 132.129 167.138C132.53 166.458 130.027 167.169 126.597 168.714L123.291 170.197L122.426 169.363C119.954 166.922 117.358 163.43 117.297 162.348C117.297 161.978 117.142 161.73 116.988 161.854C116.833 161.947 116.802 161.761 116.926 161.421C117.049 161.112 117.049 160.958 116.926 161.082C116.802 161.205 116.462 160.927 116.184 160.433C115.782 159.815 115.721 159.475 115.999 159.166C116.246 158.826 116.246 158.764 115.968 158.949C115.659 159.104 115.566 158.888 115.566 158.146C115.566 157.25 115.844 156.292 116.988 152.955C117.111 152.553 117.173 152.553 117.451 152.955C117.698 153.326 117.729 153.264 117.575 152.769C117.482 152.399 117.575 151.719 117.791 151.286L118.162 150.452L118.594 151.163C118.872 151.626 118.934 151.688 118.842 151.286C118.687 150.885 118.78 150.761 119.12 150.885C119.367 151.008 119.645 150.946 119.738 150.761C119.861 150.606 120.047 150.545 120.201 150.637C120.356 150.73 120.696 150.39 120.974 149.865C121.221 149.37 121.53 148.938 121.623 148.938C121.715 148.938 121.684 149.092 121.592 149.278C121.468 149.463 121.653 149.803 122.024 150.05C122.395 150.328 122.58 150.668 122.488 150.854C122.333 151.07 122.426 151.101 122.642 150.946C122.92 150.792 122.951 150.637 122.704 150.39C122.519 150.205 122.488 149.896 122.673 149.525C122.889 149.185 122.889 148.907 122.673 148.783C122.519 148.691 122.364 148.413 122.364 148.227C122.364 148.011 122.642 148.196 122.951 148.629C123.291 149.031 123.477 149.494 123.384 149.618C123.322 149.772 123.353 149.865 123.507 149.834C124.156 149.71 124.249 149.896 123.878 150.39C123.477 150.885 123.507 150.915 123.94 150.545C124.404 150.205 124.774 150.514 126.906 152.986L129.317 155.798L128.73 158.239C127.833 161.916 128.112 162.318 133.89 165.438C136.238 166.705 136.269 166.705 136.269 166.149C136.269 165.655 133.766 163.77 131.665 162.719C129.471 161.576 129.317 161.112 130.058 157.528L130.429 155.767L128.359 153.202C122.859 146.435 113.99 137.196 113.032 137.196C112.816 137.196 111.58 138.061 110.313 139.143V139.143ZM116.37 141.275L117.266 142.294L116.277 141.398C115.319 140.533 115.103 140.286 115.35 140.286C115.412 140.286 115.844 140.749 116.37 141.275ZM120.634 149.958C120.572 150.174 120.108 150.359 119.645 150.359L118.811 150.39L119.676 150.05C120.139 149.834 120.417 149.556 120.294 149.401C120.139 149.278 120.201 149.247 120.417 149.37C120.634 149.494 120.726 149.741 120.634 149.958V149.958ZM226.374 139.606C226.157 139.977 227.579 140.255 230.205 140.286C233.017 140.348 233.172 140.317 232.832 140.008C232.368 139.575 226.621 139.204 226.374 139.606ZM192.847 141.089C191.951 141.336 191.086 141.615 190.931 141.707C190.468 141.985 190.622 142.449 191.209 142.449C192.075 142.449 195.597 141.182 195.597 140.873C195.597 140.502 194.825 140.564 192.847 141.089V141.089ZM195.597 142.016C194.083 142.511 189.417 144.735 189.417 144.952C189.417 145.353 189.695 145.292 192.538 144.303C196.03 143.036 197.451 142.418 197.451 142.078C197.451 141.8 196.37 141.769 195.597 142.016Z" fill="black" />
    <path d="M106.914 145.075C106.667 145.354 106.667 145.539 106.852 145.539C107.223 145.539 107.656 144.952 107.439 144.736C107.377 144.674 107.13 144.797 106.914 145.075ZM107.47 146.373C107.13 146.466 106.976 146.806 106.976 147.424C107.007 148.289 107.594 148.66 107.995 148.011C108.088 147.856 107.995 147.795 107.748 147.887C107.161 148.104 107.192 147.022 107.81 146.559C108.335 146.157 108.304 146.157 107.47 146.373V146.373Z" fill="black" />
    <path d="M109.51 146.621C109.386 146.93 109.201 146.991 108.953 146.806C108.737 146.621 108.459 146.682 108.212 146.961C107.872 147.331 107.903 147.393 108.305 147.393C108.583 147.393 108.706 147.517 108.614 147.702C108.521 147.857 108.552 148.011 108.675 148.011C108.83 148.011 109.201 147.579 109.479 147.084C109.788 146.559 109.942 146.157 109.85 146.157C109.757 146.157 109.602 146.373 109.51 146.621ZM106.636 149.124C106.636 149.463 106.729 149.556 106.821 149.309C106.914 149.093 106.883 148.815 106.79 148.722C106.698 148.598 106.605 148.784 106.636 149.124V149.124ZM107.841 149.216C107.841 149.433 107.717 149.525 107.563 149.433C107.408 149.309 107.347 149.556 107.439 149.927C107.563 150.514 107.532 150.576 107.223 150.174C106.914 149.772 106.883 149.803 107.038 150.267C107.13 150.576 107.223 151.008 107.254 151.194C107.254 151.41 107.47 151.008 107.717 150.36C107.965 149.68 108.088 149.062 107.996 149C107.903 148.907 107.841 149 107.841 149.216V149.216ZM121.283 150.236C121.406 150.576 121.344 150.792 121.159 150.792C120.974 150.792 120.819 150.947 120.819 151.163C120.819 151.41 121.004 151.348 121.344 151.008C121.777 150.576 121.808 150.421 121.468 150.112C121.159 149.772 121.128 149.803 121.283 150.236V150.236ZM120.077 151.472C120.232 151.688 120.139 151.75 119.799 151.626C119.459 151.503 119.367 151.565 119.49 151.905C119.614 152.214 119.768 152.275 120.047 152.028C120.232 151.874 120.541 151.843 120.695 151.966C120.819 152.09 120.757 151.935 120.541 151.626C120.077 151.039 119.738 150.916 120.077 151.472V151.472ZM124.403 151.348C124.311 151.503 124.434 151.626 124.682 151.626C124.929 151.626 125.052 151.503 124.96 151.348C124.867 151.225 124.743 151.101 124.682 151.101C124.62 151.101 124.496 151.225 124.403 151.348ZM121.87 152.09L121.283 152.801L121.993 152.214C122.364 151.874 122.673 151.565 122.673 151.503C122.673 151.256 122.426 151.441 121.87 152.09ZM118.162 152.275C118.285 152.368 118.594 152.492 118.841 152.523C119.12 152.553 119.243 152.523 119.15 152.399C119.027 152.306 118.718 152.183 118.471 152.152C118.193 152.121 118.069 152.152 118.162 152.275ZM118.563 153.851C118.44 154.377 118.471 154.5 118.718 154.253C118.872 154.098 118.965 153.759 118.903 153.542C118.811 153.295 118.687 153.45 118.563 153.851ZM117.296 155.829C116.802 156.2 116.802 156.231 117.358 156.231C117.667 156.231 117.945 156.045 117.945 155.829C117.945 155.613 117.914 155.427 117.884 155.427C117.853 155.427 117.605 155.613 117.296 155.829ZM119.892 156.076C119.892 156.231 120.047 156.292 120.201 156.2C120.386 156.107 120.51 155.952 120.51 155.86C120.51 155.798 120.386 155.736 120.201 155.736C120.047 155.736 119.892 155.891 119.892 156.076ZM117.296 157.065C117.389 157.374 117.575 157.528 117.667 157.436C117.76 157.343 117.667 157.096 117.451 156.879C117.142 156.601 117.111 156.632 117.296 157.065ZM198.378 160.278C197.111 164.326 197.606 167.262 199.923 169.579C200.757 170.444 202.797 171.186 203.198 170.815C203.26 170.723 202.611 170.105 201.715 169.456C199.243 167.602 198.934 166.984 198.934 164.357C198.903 162.38 199.089 161.175 199.799 158.733C199.923 158.394 199.799 158.208 199.49 158.208C199.181 158.208 198.811 158.919 198.378 160.278ZM229.216 158.702C229.093 158.795 229.154 159.259 229.34 159.691C229.525 160.155 229.772 160.804 229.927 161.144C230.978 163.77 231.194 166.428 230.452 167.633C230.36 167.787 230.174 168.405 230.051 168.93C229.556 171.248 231.472 169.27 232.059 166.891C232.368 165.624 232.337 165.037 231.905 163.399C231.101 160.278 229.834 158.054 229.216 158.702V158.702ZM212.283 164.852C211.85 165.099 210.584 165.748 209.44 166.304C207.37 167.293 205.485 168.776 205.485 169.363C205.485 169.796 206.01 169.703 207.432 168.961C208.142 168.59 209.78 168.065 211.047 167.787L213.365 167.293L213.89 168.498C214.292 169.332 214.601 169.641 214.971 169.579C215.435 169.487 215.528 169.178 215.497 167.818C215.404 165.13 214.075 163.894 212.283 164.852V164.852ZM225.848 165.5C225.446 165.964 224.087 167.076 222.82 168.003C221.399 169.085 220.657 169.796 220.842 169.981C221.337 170.475 223.685 169.765 224.952 168.745C226.343 167.633 226.837 167.571 227.331 168.374C227.764 169.054 228.753 169.363 229.309 168.992C229.649 168.776 229.525 168.312 228.691 166.706C227.486 164.481 226.991 164.264 225.848 165.5ZM218 180.209C214.693 180.642 213.581 180.827 212.345 181.198C212.067 181.29 211.48 181.414 211.047 181.507C210.305 181.661 209.409 181.908 207.03 182.588C205.547 183.021 203.6 183.546 202.92 183.701C202.611 183.762 201.932 183.979 201.375 184.164C198.502 185.091 196.37 185.709 196.03 185.709C195.813 185.709 195.01 185.925 194.299 186.142C193.558 186.389 192.569 186.698 192.044 186.791C191.549 186.883 190.993 187.007 190.808 187.069C189.479 187.44 188.768 187.594 186.018 188.057C185.431 188.15 184.844 188.305 184.72 188.397C184.288 188.645 184.442 189.108 184.937 189.108C185.215 189.108 186.42 189.664 187.656 190.375C193.218 193.527 202.148 196.617 210.182 198.131C215.033 199.058 215.497 199.089 217.598 198.749C220.564 198.224 224.983 195.875 229.062 192.631C232.368 190.004 236.694 185.678 236.694 184.998C236.694 184.535 233.944 183.113 230.483 181.723C227.115 180.394 221.615 179.715 218 180.209V180.209ZM226.188 181.692C229.062 182.156 231.441 183.114 231.441 183.855C231.441 184.133 231.07 185.06 230.638 185.894C230.174 186.729 229.154 188.737 228.32 190.344L226.837 193.28L223.994 195.103C220.657 197.266 219.019 197.76 215.219 197.76C212.407 197.76 206.752 196.679 203.013 195.443L201.468 194.917L202.21 194.33C202.951 193.743 202.951 193.774 204.743 194.639C206.103 195.319 207.185 195.597 208.977 195.721C210.275 195.813 211.356 195.783 211.356 195.659C211.356 195.504 210.213 195.226 208.822 194.979C207.308 194.732 205.64 194.238 204.651 193.712L202.982 192.816L202.086 193.496C201.314 194.052 200.943 194.114 199.367 193.959C196.957 193.712 196.679 193.558 195.844 192.26C193.836 188.985 193.434 188.305 193.434 187.965C193.434 187.779 194.176 187.47 195.072 187.254C195.937 187.038 201.005 185.647 206.258 184.133C211.541 182.65 216.393 181.352 217.073 181.29C218.865 181.074 223.5 181.29 226.188 181.692V181.692ZM239.969 181.908C240.124 182.403 240.217 183.515 240.217 184.38C240.186 186.049 240.464 186.451 240.989 185.462C241.545 184.411 241.484 182.496 240.866 181.754C240.062 180.827 239.66 180.889 239.969 181.908ZM182.372 184.72C182.001 185.091 181.692 185.524 181.692 185.709C181.692 185.864 181.692 186.049 181.661 186.08C181.29 187.131 181.167 189.17 181.414 189.942C181.939 191.58 182.31 191.117 182.31 188.923C182.31 187.687 182.495 186.482 182.804 185.833C183.484 184.442 183.237 183.855 182.372 184.72V184.72ZM216.856 203.6C210.614 203.909 211.572 205.145 217.938 204.96C221.213 204.898 222.758 204.496 223.036 203.693C223.16 203.291 223.253 203.291 216.856 203.6ZM258.17 50.7997C255.389 51.6958 253.658 52.5301 253.844 52.87C253.998 53.1172 255.728 52.6537 256.316 52.2211C256.686 51.943 260.858 50.6761 261.414 50.6761C261.723 50.6761 261.723 50.7688 261.383 51.1705C260.92 51.7267 259.251 52.6537 259.251 52.3447C259.251 52.2211 258.942 52.5919 258.571 53.1481C258.17 53.7043 257.521 54.2914 257.119 54.4459C256.532 54.6313 256.439 54.6313 256.686 54.3223C257.088 53.8279 256.161 52.7464 255.667 53.0863C255.234 53.3644 254.771 55.1257 255.203 54.8785C255.821 54.4768 255.852 55.342 255.265 56.1454C254.894 56.578 254.678 57.0106 254.74 57.0724C254.863 57.2269 259.9 53.5189 261.847 51.8194C262.588 51.2014 262.959 50.6452 262.835 50.4289C262.496 49.8727 260.549 50.0272 258.17 50.7997V50.7997ZM251.619 54.5695C251.402 55.1566 251.835 55.9909 252.453 56.1763C252.731 56.269 252.793 56.1454 252.669 55.8055C252.577 55.5583 252.577 55.342 252.7 55.342C253.287 55.4347 253.38 55.2493 253.071 54.6931C252.669 53.9515 251.897 53.8897 251.619 54.5695V54.5695ZM248.312 55.4656C247.694 56.0836 247.694 56.1454 248.374 56.8561C248.93 57.4741 248.961 57.4741 249.363 56.7016C249.734 56.0218 249.734 55.8364 249.301 55.4347C248.869 55.0021 248.776 55.0021 248.312 55.4656ZM244.759 56.3308C244.265 56.8252 244.326 57.3196 244.944 57.814C245.346 58.1539 245.408 58.1539 245.222 57.8449C245.068 57.5977 245.192 57.196 245.47 56.887C245.902 56.3926 245.933 56.2999 245.562 56.1454C245.315 56.0527 244.944 56.1454 244.759 56.3308V56.3308ZM261.723 56.1145C257.922 56.6089 254.616 57.4741 254.616 57.9685C254.616 58.0612 254.771 58.0303 254.925 57.9376C255.11 57.8449 255.605 58.0303 256.068 58.4011L256.903 59.05L257.582 58.2466C258.293 57.4123 260.024 57.1651 260.24 57.8449C260.333 58.0921 260.611 57.9685 261.043 57.5359C261.785 56.7943 263.886 56.578 263.886 57.2269C263.886 57.505 263.979 57.505 264.257 57.2269C264.72 56.7634 266.482 56.7325 267.285 57.1651C267.996 57.5359 267.779 58.5865 266.883 59.05C266.389 59.3281 266.204 59.2972 265.987 58.8955C265.431 57.8758 264.319 58.432 264.041 59.8843C263.917 60.5641 264.01 60.8731 264.257 60.8731C264.782 60.8731 269.077 58.8955 269.51 58.4629C270.097 57.8758 269.448 56.887 268.274 56.578C266.883 56.1763 263.175 55.9291 261.723 56.1145V56.1145ZM240.927 57.6286C240.804 58.4011 241.607 59.2663 242.071 58.8028C242.441 58.432 242.256 58.0303 241.823 58.1848C241.514 58.3084 241.422 58.2157 241.514 57.9376C241.607 57.6904 241.916 57.5977 242.194 57.7213C242.689 57.8758 242.689 57.8758 242.194 57.3814C241.484 56.6398 241.113 56.7325 240.927 57.6286V57.6286ZM252.515 58.2466C252.237 58.8337 252.299 59.05 252.793 59.5135C253.349 60.0388 253.411 60.0388 253.844 59.4517C254.462 58.6174 254.4 58.2466 253.565 57.8449C252.947 57.5668 252.793 57.6286 252.515 58.2466V58.2466ZM249.27 58.8646C248.591 59.5135 248.621 59.9152 249.301 60.4405C250.012 60.9967 250.383 60.9658 250.166 60.4096C250.074 60.1624 250.136 59.9461 250.29 59.9461C250.723 59.9461 250.661 59.5444 250.197 58.8955C249.796 58.3702 249.765 58.3702 249.27 58.8646Z" fill="black" />
    <path d="M260.58 59.9768C260.302 60.6875 260.333 60.9347 260.765 61.3055C261.507 61.9853 261.816 61.9235 262.248 60.9965C262.557 60.3167 262.526 60.1004 262.125 59.6987C261.383 58.9262 260.951 59.0189 260.58 59.9768V59.9768ZM245.346 59.9768C245.346 60.7493 245.871 61.7999 246.273 61.7999C246.829 61.7999 246.984 60.2858 246.489 59.7914C245.81 59.1425 245.346 59.2043 245.346 59.9768ZM256.995 60.842C256.872 61.3673 256.995 61.8308 257.366 62.2016C257.891 62.7578 257.922 62.7269 258.448 61.9544C259.035 61.0583 258.788 60.4403 257.737 60.1622C257.304 60.0695 257.119 60.224 256.995 60.842V60.842ZM241.947 60.5639C241.607 60.7802 241.607 60.9656 241.947 61.769C242.472 63.0668 242.781 63.1904 242.967 62.2634C243.029 61.8308 242.967 61.3982 242.781 61.2746C242.596 61.151 242.565 61.2437 242.72 61.4909C242.874 61.769 242.843 61.8308 242.596 61.6763C242.318 61.4909 242.318 61.3364 242.565 61.0274C242.967 60.533 242.534 60.1931 241.947 60.5639V60.5639ZM253.905 61.1201C253.596 61.1819 253.38 61.46 253.442 61.7381C253.473 62.0162 253.411 62.4488 253.287 62.6342C253.133 62.9123 253.195 63.0359 253.504 63.0359C253.782 63.0359 253.998 63.1595 253.998 63.3449C253.998 63.9011 254.492 63.6539 254.925 62.9123C255.234 62.2943 255.234 62.078 254.894 61.5836C254.647 61.2746 254.214 61.0583 253.905 61.1201ZM250.383 62.1707C249.734 63.0359 249.703 63.2831 250.29 63.9629C250.784 64.55 250.908 64.5809 250.908 64.1792C250.908 63.8702 251.063 63.6539 251.217 63.6539C251.65 63.6539 251.588 62.9741 251.093 62.3252C250.784 61.9235 250.63 61.8926 250.383 62.1707V62.1707ZM261.816 62.9432C261.26 63.1595 261.321 64.5191 261.878 65.0753C262.248 65.477 262.403 65.477 262.743 65.1371C263.453 64.4264 263.546 63.7157 262.99 63.2213C262.403 62.696 262.403 62.696 261.816 62.9432ZM246.335 63.932C246.304 65.0753 247.015 65.786 247.355 64.9826C247.602 64.4573 247.633 64.0865 247.54 63.3449C247.54 63.1595 247.262 63.0359 246.953 63.0359C246.52 63.0359 246.366 63.2831 246.335 63.932ZM258.2 64.1174C257.552 64.6118 257.644 65.4461 258.386 65.9405C258.818 66.1877 259.035 66.1259 259.375 65.6624C259.993 64.8281 259.993 64.3646 259.313 63.9938C258.942 63.8084 258.602 63.8393 258.2 64.1174ZM242.75 64.7045C242.534 65.5388 243.183 66.2186 243.801 65.8169C244.172 65.5697 244.172 65.5079 243.832 65.5079C243.554 65.5079 243.492 65.2916 243.616 64.7972C243.739 64.3028 243.647 64.0556 243.368 64.0556C243.121 64.0556 242.843 64.3646 242.75 64.7045V64.7045ZM254.832 64.9208C254.183 65.2916 254.122 66.6203 254.771 66.8675C255.327 67.0838 255.574 67.0838 255.481 66.9293C255.419 66.8675 255.636 66.5276 255.945 66.2186C256.439 65.6315 256.439 65.6006 255.945 65.1062C255.543 64.7663 255.234 64.7045 254.832 64.9208V64.9208ZM250.754 66.3422C250.754 67.64 251.835 68.6906 252.206 67.7636C252.608 66.7439 252.453 66.2495 251.619 65.7551L250.754 65.2607V66.3422V66.3422ZM266.451 65.5697C265.647 65.9714 265.524 66.8984 266.173 67.5473C266.822 68.1653 267.192 68.0726 267.81 67.1765C268.305 66.404 268.305 66.3422 267.81 66.0641C267.501 65.9096 267.347 65.6624 267.44 65.477C267.687 65.1062 267.316 65.1371 266.451 65.5697V65.5697ZM247.2 67.5164C247.2 68.6906 248.282 69.5558 248.591 68.6288C248.9 67.64 248.436 66.4658 247.787 66.5276C247.355 66.5585 247.2 66.8057 247.2 67.5164V67.5164ZM262.496 66.713C261.908 67.2692 262.65 68.9069 263.484 68.9069C264.133 68.9069 264.659 67.4855 264.226 66.9293C263.886 66.5276 262.805 66.3731 262.496 66.713ZM259.251 67.3001C258.571 67.6091 258.633 68.9069 259.313 69.5867C259.9 70.1738 259.931 70.1738 260.333 69.6176C260.889 68.9069 260.889 68.2889 260.363 67.5782C259.931 66.9911 259.931 66.9911 259.251 67.3001ZM243.585 68.0726C243.523 68.8142 244.295 70.0502 244.604 69.7412C244.728 69.6176 244.635 69.3395 244.45 69.0923C244.141 68.7215 244.172 68.6597 244.697 68.8142C245.377 68.9996 245.501 68.7215 245.068 68.0108C244.574 67.2383 243.647 67.3001 243.585 68.0726ZM255.45 68.5052C255.018 68.9069 255.265 70.0502 255.852 70.6064C256.377 71.1008 256.47 71.1008 256.47 70.6682C256.47 70.421 256.625 70.1429 256.841 70.0811C257.397 69.8957 256.872 68.2889 256.192 68.2889C255.883 68.2889 255.543 68.3816 255.45 68.5052V68.5052ZM267.44 69.0305C266.667 69.4631 266.574 70.6682 267.285 71.3789C267.841 71.9351 267.872 71.9042 268.428 71.2862C269.139 70.4828 269.139 70.2047 268.521 69.3395C268.15 68.8451 267.934 68.7833 267.44 69.0305V69.0305ZM252.082 69.4322C251.341 69.6176 251.372 70.6373 252.144 71.4407C252.669 72.0278 252.762 72.0278 252.762 71.5952C252.762 71.3171 252.886 71.0699 253.04 71.0699C253.195 71.0699 253.38 70.8845 253.473 70.6373C253.689 70.0811 252.762 69.2777 252.082 69.4322ZM263.206 71.0081C263.299 71.5643 263.546 72.1205 263.762 72.2132C264.01 72.3059 264.195 72.6149 264.226 72.893C264.226 73.1711 264.38 73.0166 264.566 72.5222C264.72 72.0587 264.998 71.6879 265.153 71.6879C265.555 71.6879 265.493 70.5137 265.06 70.2665C264.875 70.1429 264.35 70.0193 263.886 69.9884C263.175 69.9575 263.114 70.0193 263.206 71.0081V71.0081ZM248.529 70.3592C247.911 70.5755 248.065 71.9351 248.745 72.3059C249.239 72.5531 249.363 72.5531 249.363 72.1823C249.363 71.9351 249.518 71.6879 249.703 71.6261C250.074 71.5025 249.765 70.5446 249.27 70.3592C249.054 70.2974 248.714 70.2974 248.529 70.3592V70.3592ZM245.006 71.0081C244.388 71.1317 244.326 72.5531 244.883 73.1402C245.192 73.4492 245.377 73.4183 245.717 72.9857C246.304 72.3059 245.779 70.8536 245.006 71.0081V71.0081ZM260.178 71.0699C259.56 71.4407 259.529 72.584 260.116 73.2638C260.58 73.7891 260.611 73.7582 261.167 73.0784C261.847 72.2132 261.878 71.7806 261.29 71.1935C260.765 70.6991 260.765 70.6991 260.178 71.0699V71.0699ZM256.841 71.8733C256.655 72.0896 256.47 72.3986 256.47 72.584C256.47 72.7385 256.285 72.9239 256.099 73.0166C255.821 73.1093 255.945 73.4183 256.47 73.9745L257.212 74.8088L257.613 74.0981C258.108 73.202 258.108 72.584 257.613 71.966C257.304 71.5334 257.181 71.5334 256.841 71.8733V71.8733ZM253.38 72.6149C253.38 72.7694 253.226 72.893 253.04 72.8312C252.453 72.7076 252.422 74.5307 253.009 74.9633C253.751 75.5504 253.844 75.4886 254.276 74.5616C254.554 73.9745 254.554 73.6655 254.338 73.6037C254.153 73.5419 253.998 73.2329 253.998 72.893C253.998 72.584 253.874 72.3059 253.689 72.3059C253.535 72.3059 253.38 72.4295 253.38 72.6149V72.6149ZM264.782 73.511C263.917 74.4071 263.824 75.1487 264.504 75.7667C265.122 76.3538 265.184 76.3538 265.771 75.8285C266.513 75.1796 266.513 74.3144 265.833 73.5728C265.307 73.0475 265.246 73.0475 264.782 73.511V73.511ZM249.054 74.4689C249.394 76.2302 249.672 76.5392 250.29 75.7049C250.97 74.8088 250.568 73.6655 249.518 73.4801C248.9 73.3565 248.869 73.4183 249.054 74.4689ZM246.119 74.4689C245.995 74.6543 245.717 74.747 245.47 74.6543C245.13 74.5307 245.099 74.6234 245.284 75.0251C245.439 75.3032 245.531 75.674 245.47 75.8594C245.408 76.0139 245.624 76.5083 245.964 76.9409C246.458 77.5589 246.582 77.6207 246.582 77.1572C246.582 76.8791 246.737 76.6319 246.891 76.6319C247.324 76.6319 247.262 75.9212 246.767 74.9324C246.489 74.4071 246.273 74.2526 246.119 74.4689V74.4689ZM257.057 75.1178C256.81 76.292 257.026 77.3735 257.552 77.7443C258.077 78.1151 258.2 78.0842 258.726 77.219C259.344 76.292 259.344 76.292 258.664 75.674C258.324 75.3341 258.015 75.2105 258.015 75.4268C258.015 75.674 257.891 75.674 257.552 75.3959C257.304 75.1796 257.088 75.056 257.057 75.1178V75.1178ZM253.905 76.2302C253.195 76.4156 253.287 78.0224 254.06 78.7022C254.431 79.0421 254.616 79.073 254.616 78.8258C254.616 78.6095 254.771 78.5477 254.925 78.6404C255.11 78.7331 255.234 78.7022 255.234 78.5168C255.234 78.3623 255.296 78.0533 255.389 77.8061C255.605 77.219 254.554 76.1066 253.905 76.2302ZM250.599 77.0954C250.383 77.3426 250.136 77.4971 250.012 77.4353C249.888 77.3426 249.827 77.6516 249.857 78.1151C249.857 78.5477 250.043 78.9803 250.228 79.0421C250.445 79.1039 250.537 79.2584 250.445 79.4129C250.352 79.5365 250.506 79.8146 250.754 80.0309C251.001 80.2472 251.248 80.3399 251.248 80.2163C251.341 79.7837 251.402 79.5365 251.65 78.8567C251.804 78.3932 251.742 77.9606 251.464 77.6516C251.248 77.3735 251.124 77.0954 251.155 77.0336C251.464 76.6319 250.939 76.6937 250.599 77.0954V77.0954ZM265.524 77.1881C264.689 77.9297 265.246 79.9691 266.204 79.5983C266.42 79.5365 266.76 79.6292 266.945 79.8146C267.223 80.0927 267.285 80.0618 267.131 79.6601C267.007 79.382 267.069 78.8876 267.223 78.5786C267.47 78.146 267.378 77.8679 266.822 77.3117C266.173 76.6628 266.111 76.6628 265.524 77.1881ZM250.29 80.618C250.29 80.7416 250.506 81.1433 250.784 81.5141C251.032 81.8849 251.093 82.1939 250.939 82.1939C250.754 82.1939 250.599 82.3175 250.599 82.5029C250.599 82.6574 250.784 82.8119 251.032 82.8119C251.279 82.8119 251.588 83.09 251.681 83.4299C251.773 83.7698 252.02 84.0479 252.175 84.0479C252.36 84.0479 252.422 83.9243 252.299 83.7389C252.206 83.5844 252.299 83.1827 252.484 82.8737C252.731 82.472 252.762 82.0085 252.546 81.3905C252.299 80.6798 252.051 80.4944 251.279 80.4635C250.723 80.4326 250.29 80.4944 250.29 80.618V80.618ZM108.274 232.152C106.358 234.222 104.226 236.632 103.484 237.497C102.743 238.393 98.8491 242.905 94.863 247.54C85.2222 258.756 81.8232 262.928 81.9468 263.33C82.0086 263.515 83.0283 262.495 84.2025 261.074C85.4076 259.653 88.8066 255.697 91.773 252.298C94.7394 248.899 99.498 243.399 102.341 240.093C105.153 236.787 108.521 232.831 109.819 231.348C111.116 229.865 112.167 228.567 112.167 228.505C112.167 227.98 111.302 228.783 108.274 232.152ZM96.5934 271.549C96.5007 271.704 98.0457 273.897 100.023 276.431C101.97 278.965 105.678 283.94 108.274 287.524C110.838 291.078 113.928 295.28 115.133 296.825C116.586 298.679 117.389 300.008 117.482 300.688C117.575 301.275 117.976 303.376 118.378 305.354C118.965 308.32 119.212 309 119.645 309C120.263 309 120.232 308.722 119.089 303.901C118.687 302.202 118.347 300.595 118.347 300.317C118.347 299.915 113.928 292.994 113.403 292.623C113.279 292.53 111.487 290.151 109.417 287.277C103.793 279.521 97.3968 271.364 96.9642 271.333C96.8406 271.302 96.6861 271.425 96.5934 271.549V271.549Z" fill="black" />
  </g>
</svg>
